<svg id="Layer_1" data-name="Layer 1" xmlns="http://www.w3.org/2000/svg" width="100" height="100" viewBox="0 0 100 100">
  <defs>
    <style>
      .cls-1 {
        fill: #e00d1e;
      }

      .cls-2 {
        fill: #ffba07;
      }

      .cls-3 {
        fill: #009543;
      }

      .cls-4 {
        fill: #416bcf;
      }
    </style>
  </defs>
  <title>areachart-01</title>
  <g>
    <path class="cls-1" d="M.10285,58.23994l13.9426-16.74446L28.48924,50.8384,42.70012,32.03122l13.98134-8.67557L71.29521,4.92494,85.56,14.0734,100,33.48726V84.08567H0S.00008,58.23994.10285,58.23994Z"/>
    <path class="cls-2" d="M.10285,64.0641l13.9426-12.49768,14.44379,5.09614,16.04-16.97806,13.98134-8.67557,12.78464-5.07651L85.56,25.68337,100,53.62914V96.65466H0S.00008,64.0641.10285,64.0641Z"/>
    <path class="cls-3" d="M.10285,88.84986l13.9426-20.80923,14.44379,5.09613L42.70012,54.32958,56.68146,45.654l14.61375,1.02955L85.56,45.67688,100,70.10335V97.99264H0S.00008,88.84986.10285,88.84986Z"/>
    <path class="cls-4" d="M.10286,95.68118,14.04546,78.934l14.44379,4.10135L42.70013,67.89941l13.98134-6.98206,14.61375.82858L85.56,60.93576,100,80.59407V99.98078H0S.00009,95.68118.10286,95.68118Z"/>
  </g>
</svg>
