<?xml version="1.0" encoding="UTF-8"?><svg id="uuid-94513427-d1df-4697-b9f7-dc658bb663de" xmlns="http://www.w3.org/2000/svg" width="94.9" height="62.5" viewBox="0 0 94.9 62.5"><path d="m46.6,1.9c-15.5,0-28,12.5-28,28s12.5,27.9,28,27.9,27.9-12.5,27.9-27.9S62,1.9,46.6,1.9h0Z" style="fill:#ccc;"/><path d="m6.5,35.8c.2,0,.2.1.2.2s0,.1-.1.2l-1.4,1.4.3,2v.2l-.1.1h-.2l-1.8-.9-1.8.9h-.2s-.1,0-.1-.1v-.2l.3-2-1.5-1.4c-.1,0-.1-.1-.1-.2s.1-.2.2-.2l2-.3.9-1.8c0-.1.1-.2.2-.2s.1,0,.2.2l.9,1.8,2.1.3h0Z" style="fill:#e5e5e5;"/><path d="m81.8,47.1c.2,0,.2.1.2.2s0,.1-.1.2l-1.4,1.4.3,2v.2h-.3l-1.8-.9-1.8.9h-.3v-.2l.3-2-1.4-1.4c-.1,0-.1-.1-.1-.2s.1-.2.2-.2l2-.3.9-1.8c0-.1.1-.2.2-.2s.1.1.2.2l.9,1.8,2,.3h0Z" style="fill:#e5e5e5;"/><path d="m75.3,2.3c.2,0,.2.1.2.2s0,.1-.1.2l-1.4,1.4.3,2v.2l-.1.1h-.2l-1.8-.9-1.8.9h-.2s-.1,0-.1-.1v-.2l.3-2-1.5-1.4c-.1,0-.1-.1-.1-.2s.1-.2.2-.2l2-.3.9-1.8c0-.1.1-.2.2-.2s.1,0,.2.2l.9,1.8,2,.3h.1Z" style="fill:#e5e5e5;"/><path d="m94.6,28.5c.2,0,.3.1.3.3,0,.1-.1.2-.1.3l-2.1,2.1.5,3v.1q0,.1-.1.2c0,.1-.1.1-.2.1s-.2,0-.2-.1l-2.7-1.4-2.7,1.4c-.1,0-.1.1-.2.1s-.1,0-.2-.1c0-.1-.1-.1-.1-.2v-.1l.5-3-2.2-2.1c-.1-.1-.1-.2-.2-.3,0-.2.1-.2.3-.3l3-.4,1.3-2.6c.1-.2.2-.2.3-.2s.2.1.3.2l1.3,2.7,3.2.3h0Z" style="fill:#e5e5e5;"/><path d="m15.1,3.4c.2,0,.3.1.3.3,0,.1-.1.2-.2.3l-2.1,2.1.5,3v.1q0,.1-.1.2c0,.1-.1.1-.2.1s-.2,0-.2-.1l-2.7-1.4-2.5,1.4c-.1,0-.2.1-.2.1q-.1,0-.2-.1c0-.1-.1-.1-.1-.2v-.1l.5-3-2.2-2.1c-.1-.1-.1-.2-.2-.3,0-.1.1-.2.3-.3l3-.4,1.3-2.7c.1-.2.2-.2.3-.2s.2.1.3.2l1.3,2.7,3.1.4Z" style="fill:#e5e5e5;"/><path d="m29.1,56.4c.2,0,.3.1.3.3,0,.1-.1.2-.2.3l-2.1,2.1.5,3v.1q0,.1-.1.2c0,.1-.1.1-.2.1s-.2,0-.2-.1l-2.7-1.4-2.5,1.4c-.1,0-.1.1-.2.1s-.1,0-.2-.1c0-.1-.1-.1-.1-.2v-.1l.5-3-2.2-2.1c-.1-.1-.1-.2-.2-.3,0-.2.1-.2.3-.3l3-.4,1.3-2.7c.1-.2.2-.2.3-.2s.2.1.3.2l1.3,2.7,3.1.4Z" style="fill:#e5e5e5;"/><path d="m47.3,14.8c8.1,0,14.7,6.6,14.7,14.7s-6.6,14.7-14.7,14.7c-2.4,0-4.7-.6-6.8-1.6l-5.6,1.6c-1,.3-2-.3-2.3-1.3-.1-.3-.1-.7,0-1l1.6-5.6c-1.1-2.1-1.7-4.4-1.7-6.8,0-8.1,6.6-14.7,14.8-14.7Zm0,2.2c-6.9,0-12.5,5.6-12.5,12.5,0,2.2.5,4.2,1.6,6.1l.2.4-1.6,5.9,5.9-1.6.4.2c6,3.4,13.7,1.2,17-4.9,3.4-6,1.2-13.7-4.9-17-1.9-1.1-4-1.6-6.1-1.6Z" style="fill:#fff;"/></svg>