<?xml version="1.0" encoding="UTF-8"?><svg id="uuid-c08dd53b-e7b6-4a31-92c2-e513eee5c50d" xmlns="http://www.w3.org/2000/svg" width="94.73" height="62.46" viewBox="0 0 94.73 62.46"><path d="m46.36,1.87c-15.43,0-27.94,12.51-27.94,27.94s12.51,27.94,27.94,27.94,27.94-12.51,27.94-27.94S61.79,1.87,46.36,1.87h0Z" style="fill:#ccc;"/><path d="m6.28,35.78c.15,0,.22.09.22.18,0,.07-.04.14-.1.19l-1.42,1.38.34,2v.07s.02.09,0,.14c-.03.04-.07.06-.12.06-.05,0-.11,0-.16,0l-1.75-.92-1.75.92s-.11,0-.16,0c-.05,0-.09-.02-.12-.06-.02-.05-.02-.09,0-.14v-.07l.34-2-1.5-1.38c-.06-.05-.09-.12-.1-.19,0-.09.07-.15.22-.18l2-.28.88-1.78c0-.11.11-.16.19-.16s.14,0,.19.16l.88,1.78,2,.28h-.08Z" style="fill:#e5e5e5;"/><path d="m81.54,47.08c.15,0,.22.08.22.18,0,.07-.04.14-.1.18l-1.42,1.39.34,2v.08s.01.09,0,.14c-.04.02-.08.02-.12,0-.05,0-.11,0-.16,0l-1.75-.92-1.75.92c-.05,0-.11,0-.16,0h-.12s-.01-.09,0-.14v-.08l.34-2-1.42-1.39c-.05-.05-.09-.11-.1-.18,0-.1.07-.16.22-.18l2-.29.88-1.77c0-.11.11-.17.19-.17s.14.06.19.17l.88,1.77,2,.29h-.16,0Z" style="fill:#e5e5e5;"/><path d="m75.04,2.22c.15,0,.22.08.22.18,0,.07-.04.14-.1.19l-1.42,1.38.34,1.95v.08s.02.09,0,.14c-.03.04-.07.06-.12.06-.06,0-.11-.02-.16-.05l-1.75-.92-1.75.92s-.1.05-.16.05c-.05,0-.1-.02-.12-.06-.02-.05-.02-.09,0-.14v-.08l.34-1.95-1.47-1.38c-.06-.05-.09-.12-.1-.19,0-.1.07-.16.22-.18l2-.29.88-1.77C71.89.05,72,0,72.08,0S72.22,0,72.27.16l.88,1.77,2,.29h-.11,0Z" style="fill:#e5e5e5;"/><path d="m94.4,28.43c.22,0,.33.09.33.27-.01.11-.07.21-.15.28l-2.15,2.1.51,3v.12s-.02.1-.05.15c-.04.06-.11.09-.18.09-.09,0-.17-.03-.24-.08l-2.65-1.39-2.67,1.38c-.07.05-.15.07-.23.08-.07,0-.15-.03-.19-.09s-.06-.14-.06-.21v-.12l.51-3-2.15-2.1c-.08-.07-.14-.17-.15-.28,0-.15.11-.24.33-.27l3-.44,1.31-2.57c.07-.16.17-.24.29-.24s.21.08.29.24l1.33,2.69,3,.44s-.03-.05-.03-.05Z" style="fill:#e5e5e5;"/><path d="m14.89,3.35c.22.04.33.13.33.27,0,.11-.06.22-.15.29l-2.18,2.1.51,3v.12c0,.07-.02.15-.06.21-.04.05-.11.08-.18.08-.09,0-.17-.02-.24-.07l-2.66-1.39-2.6,1.39c-.07.04-.16.07-.24.07-.07,0-.14-.03-.18-.08-.04-.06-.07-.13-.07-.21v-.12l.51-3-2.16-2.09c-.08-.07-.14-.18-.15-.29,0-.14.12-.23.34-.27l3-.43L10.04.24c.08-.16.18-.24.29-.24s.22.08.29.24l1.27,2.69s3,.42,3,.42Z" style="fill:#e5e5e5;"/><path d="m28.89,56.35c.22,0,.33.09.33.27-.01.11-.06.21-.15.28l-2.18,2.14.51,3v.12c0,.07-.02.15-.06.21-.04.06-.11.09-.18.09-.08,0-.17-.03-.24-.07l-2.65-1.4-2.63,1.36c-.07.04-.15.06-.23.07-.07,0-.15-.03-.19-.09s-.06-.14-.06-.21v-.12l.51-3-2.15-2.1c-.08-.07-.14-.17-.15-.28,0-.15.11-.24.33-.27l3-.43,1.33-2.7c.08-.16.17-.24.29-.24s.21.08.29.24l1.28,2.74s3,.39,3,.39Z" style="fill:#e5e5e5;"/><g><path d="m59.02,17.14c-.79-.83-1.86-1.52-3.09-2.07-2.47-1.11-5.78-1.76-9.38-1.76s-6.91.65-9.38,1.76c-1.23.55-2.31,1.24-3.09,2.07-.79.84-1.34,1.88-1.34,3.07v20.71c0,1.19.54,2.23,1.34,3.07.79.83,1.86,1.52,3.09,2.08,2.47,1.1,5.78,1.76,9.38,1.76s6.91-.65,9.38-1.76c1.23-.55,2.31-1.24,3.09-2.08.79-.84,1.34-1.88,1.34-3.07v-20.71c0-1.19-.54-2.23-1.34-3.07Zm-23.06,1.78c.48-.51,1.24-1.03,2.27-1.49,2.06-.93,5-1.53,8.32-1.53s6.26.61,8.32,1.53c1.03.46,1.79.98,2.27,1.49.47.5.63.94.63,1.29s-.16.79-.63,1.29c-.48.51-1.24,1.03-2.27,1.49-2.06.93-5,1.53-8.32,1.53s-6.26-.61-8.32-1.53c-1.03-.46-1.79-.98-2.27-1.49-.47-.5-.63-.94-.63-1.29s.16-.79.63-1.29Zm21.18,23.3c-.48.51-1.24,1.03-2.27,1.49-2.06.93-5,1.53-8.32,1.53s-6.26-.61-8.32-1.53c-1.03-.46-1.79-.98-2.27-1.49-.47-.5-.63-.94-.63-1.29v-2.77c.56.38,1.17.73,1.84,1.03,2.47,1.1,5.78,1.76,9.38,1.76s6.91-.65,9.38-1.76c.67-.3,1.29-.64,1.84-1.03v2.77c0,.36-.16.79-.63,1.29Zm0-6.9c-.48.51-1.24,1.03-2.27,1.49-2.06.93-5,1.53-8.32,1.53s-6.26-.61-8.32-1.53c-1.03-.46-1.79-.98-2.27-1.49-.47-.5-.63-.94-.63-1.29v-2.46c.56.38,1.17.73,1.84,1.03,2.47,1.1,5.78,1.76,9.38,1.76s6.91-.65,9.38-1.76c.67-.3,1.29-.64,1.84-1.03v2.46c0,.36-.16.79-.63,1.29Zm0-6.58c-.48.51-1.24,1.03-2.27,1.49-2.06.93-5,1.53-8.32,1.53s-6.26-.61-8.32-1.53c-1.03-.46-1.79-.98-2.27-1.49-.47-.5-.63-.94-.63-1.29v-3.1c.58.39,1.2.73,1.84,1.02,2.47,1.11,5.78,1.76,9.38,1.76s6.91-.65,9.38-1.76c.67-.3,1.29-.64,1.84-1.02v3.1c0,.36-.16.79-.63,1.29Z" style="fill:#fff;"/><circle cx="55.68" cy="27.8" r=".78" style="fill:#fff;"/><circle cx="55.68" cy="34.46" r=".78" style="fill:#fff;"/><circle cx="55.68" cy="41.13" r=".78" style="fill:#fff;"/></g></svg>