<svg id="Layer_1" data-name="Layer 1" xmlns="http://www.w3.org/2000/svg" width="100" height="100" viewBox="0 0 100 100">
  <defs>
    <style>
      .cls-1 {
        fill: #e00d1e;
      }

      .cls-2 {
        fill: #416bcf;
      }

      .cls-3 {
        fill: #ba499b;
      }

      .cls-4 {
        fill: #ffba07;
      }

      .cls-5 {
        fill: #009543;
      }

      .cls-6 {
        fill: #ff7419;
      }
    </style>
  </defs>
  <title>donut</title>
  <g>
    <path class="cls-1" d="M32.38707,61.42385A20.86433,20.86433,0,0,1,29.59129,45.151l.11361-.47523L1.57507,37.53239l-.11893.48393A49.99824,49.99824,0,0,0,8.29353,77.5729l.27508.4148L32.65345,61.83333Z"/>
    <path class="cls-2" d="M70.24288,54.84027l-.12328.47329A20.89169,20.89169,0,0,1,39.63007,68.23078l-.423-.23979L24.47691,92.99l.43027.25043A49.99662,49.99662,0,0,0,98.46264,62.33756l.12231-.483Z"/>
    <path class="cls-3" d="M39.07169,67.90977A20.86154,20.86154,0,0,1,32.74675,61.959l-.2775-.39932L8.381,77.71552l.28089.41238A50.555,50.555,0,0,0,24.329,92.90832l.42785.25671L39.4889,68.1631Z"/>
    <path class="cls-4" d="M76.753,7.768A49.97136,49.97136,0,0,0,9.566,20.60015l-.29345.4032L32.8739,37.92447l.29055-.38821a20.88752,20.88752,0,0,1,27.80979-5.20769l.4148.25961L77.17309,8.03489Z"/>
    <path class="cls-5" d="M77.31426,8.12819,76.897,7.855,61.11347,32.40592l.40368.27073a20.87787,20.87787,0,0,1,8.74991,22.0094l-.10733.47378,28.33675,7.01288.116-.4849A49.97348,49.97348,0,0,0,77.31426,8.12819Z"/>
    <path class="cls-6" d="M9.46782,20.737l-.28813.40609A49.61568,49.61568,0,0,0,1.6123,37.369l-.12522.482,28.13564,7.14438.12811-.46894a20.75316,20.75316,0,0,1,3.03943-6.46514l.28137-.40126Z"/>
    <polygon class="cls-5" points="50.798 49.862 50.525 49.793 50.24 50.236 50.798 49.862"/>
    <polygon class="cls-5" points="50.525 49.793 50.526 49.79 50.093 49.683 50.525 49.793"/>
    <polygon class="cls-5" points="50.089 50.47 50.24 50.236 49.993 50.402 50.089 50.47"/>
  </g>
</svg>
