<?xml version="1.0" encoding="UTF-8"?><svg id="uuid-a71321eb-1d68-4251-b60c-b156635df5e2" xmlns="http://www.w3.org/2000/svg" width="150" height="100" viewBox="0 0 150 100"><rect width="150" height="100" rx="5" ry="5" style="fill:#f5f6f7; stroke-width:0px;"/><rect x="35.07" y="11.54" width="100.56" height="11.6" rx="1.63" ry="1.63" style="fill:#1d75bc; stroke-width:0px;"/><line x1="35.93" y1="45.63" x2="134.32" y2="45.63" style="fill:none; stroke:#ccc; stroke-miterlimit:10; stroke-width:.56px;"/><line x1="35.93" y1="66.97" x2="134.32" y2="66.97" style="fill:none; stroke:#ccc; stroke-miterlimit:10; stroke-width:.56px;"/><line x1="35.93" y1="88.32" x2="134.32" y2="88.32" style="fill:none; stroke:#ccc; stroke-miterlimit:10; stroke-width:.56px;"/><line x1="68.71" y1="24.2" x2="68.71" y2="88.29" style="fill:none; stroke:#ccc; stroke-miterlimit:10; stroke-width:.56px;"/><line x1="101.64" y1="24.2" x2="101.64" y2="88.29" style="fill:none; stroke:#ccc; stroke-miterlimit:10; stroke-width:.56px;"/><line x1="134.31" y1="24.2" x2="134.31" y2="88.29" style="fill:none; stroke:#ccc; stroke-miterlimit:10; stroke-width:.56px;"/><path d="m16.12,24.28h18.34c.97,0,1.75.79,1.75,1.76v17.17c0,.97-.78,1.76-1.75,1.76h-18.34c-.97,0-1.75-.79-1.75-1.76v-17.17c0-.97.78-1.76,1.75-1.76Z" style="fill:#d8df21; stroke-width:0px;"/><path d="m16.12,45.57h18.34c.97,0,1.75.79,1.75,1.76v17.17c0,.97-.78,1.76-1.75,1.76h-18.34c-.97,0-1.75-.79-1.75-1.76v-17.17c0-.97.78-1.76,1.75-1.76Z" style="fill:#d8df21; stroke-width:0px;"/><path d="m16.12,66.86h18.34c.97,0,1.75.79,1.75,1.76v17.68c0,.97-.78,1.76-1.75,1.76h-18.34c-.97,0-1.75-.79-1.75-1.76v-17.68c0-.97.78-1.76,1.75-1.76Z" style="fill:#d8df21; stroke-width:0px;"/><rect x="54.23" y="23.99" width="10.76" height="9.56" rx="1.55" ry="1.55" style="fill:#1d75bc; stroke-width:0px;"/><rect x="85.51" y="47.33" width="10.76" height="9.56" rx="1.55" ry="1.55" style="fill:#1d75bc; stroke-width:0px;"/><rect x="106.79" y="68.58" width="10.76" height="9.56" rx="1.55" ry="1.55" style="fill:#d8df21; stroke-width:0px;"/><rect x="72.65" y="68.88" width="10.76" height="9.56" rx="1.55" ry="1.55" style="fill:#ffb703; stroke-width:0px;"/><rect x="73.06" y="34.45" width="10.76" height="9.56" rx="1.55" ry="1.55" style="fill:#d8df21; stroke-width:0px;"/><rect x="85.52" y="34.45" width="10.76" height="9.56" rx="1.55" ry="1.55" style="fill:#8bc53f; stroke-width:0px;"/><rect x="54.32" y="47.5" width="10.76" height="9.56" rx="1.55" ry="1.55" style="fill:#8bc53f; stroke-width:0px;"/><rect x="40.43" y="68.66" width="10.76" height="9.56" rx="1.55" ry="1.55" style="fill:#1d75bc; stroke-width:0px;"/><rect x="21.6" y="54.31" width="6.99" height="2.42" style="fill:#fff; stroke-width:0px;"/><rect x="21.6" y="76.1" width="6.99" height="2.42" style="fill:#fff; stroke-width:0px;"/><rect x="21.6" y="32.83" width="6.99" height="2.42" style="fill:#fff; stroke-width:0px;"/><rect x="47.58" y="16.13" width="6.99" height="2.42" style="fill:#fafafa; stroke-width:0px;"/><rect x="80.58" y="16.13" width="6.99" height="2.42" style="fill:#fafafa; stroke-width:0px;"/><rect x="113.57" y="16.13" width="6.99" height="2.42" style="fill:#fafafa; stroke-width:0px;"/><path d="m45.67,68.75s-.15-7.78,15.93-7.78c17.63,0,16.9-16.97,16.9-16.97" style="fill:none; stroke:#999; stroke-miterlimit:10; stroke-width:1.26px;"/><path d="m78.3,68.91s.11-7.78,6.11-7.78c5.67,0,6.72-4.36,6.72-4.36" style="fill:none; stroke:#999; stroke-miterlimit:10; stroke-width:1.26px;"/><path d="m117.37,29.19s7.63,2.87,7.63,18.4" style="fill:none; stroke:#999; stroke-miterlimit:10; stroke-width:1.26px;"/><path d="m117.37,73.66s7.63-3.27,7.63-16.95" style="fill:none; stroke:#999; stroke-miterlimit:10; stroke-width:1.26px;"/><rect x="119.49" y="47.25" width="10.76" height="9.56" rx="1.55" ry="1.55" style="fill:#8bc53f; stroke-width:0px;"/><rect x="107.23" y="24.19" width="10.76" height="9.56" rx="1.55" ry="1.55" style="fill:#ffb703; stroke-width:0px;"/></svg>