<svg id="Layer_1" data-name="Layer 1" xmlns="http://www.w3.org/2000/svg" width="100" height="100" viewBox="0 0 100 100">
  <defs>
    <style>
      .cls-1 {
        fill: red;
      }

      .cls-2 {
        fill: #999;
      }
    </style>
  </defs>
  <title>linearchart</title>
  <path class="cls-1" d="M4.37321,97.78167a3.74,3.74,0,0,1-2.00243-6.90055l24.28931-15.364L39.87831,44.61623a3.73953,3.73953,0,0,1,5.35228-1.74134L68.54858,56.775,93.1428,19.64453a3.73939,3.73939,0,0,1,6.23505,4.12992L72.81453,63.87779a3.73738,3.73738,0,0,1-5.03186,1.14659l-22.71-13.53682-11.99357,28.039a3.74555,3.74555,0,0,1-1.43918,1.68976L6.36833,97.202A3.72783,3.72783,0,0,1,4.37321,97.78167Z"/>
  <polygon class="cls-2" points="99.961 100 0 100 0 0.139 5.56 0.139 5.56 94.439 99.961 94.439 99.961 100"/>
</svg>
