<svg id="Layer_1" data-name="Layer 1" xmlns="http://www.w3.org/2000/svg" width="100" height="100" viewBox="0 0 100 100">
  <defs>
    <style>
      .cls-1 {
        fill: #e00d1e;
      }

      .cls-2 {
        fill: #416bcf;
      }

      .cls-3 {
        fill: #ba499b;
      }

      .cls-4 {
        fill: #ffba07;
      }

      .cls-5 {
        fill: #009543;
      }

      .cls-6 {
        fill: #ff7419;
      }
    </style>
  </defs>
  <title>piechart</title>
  <g>
    <path class="cls-1" d="M61.94268,1.4665A49.98252,49.98252,0,0,0,22.39952,8.30117l-.41466.27547L49.933,49.89778,62.42645,1.58539Z"/>
    <path class="cls-2" d="M7.0072,24.50754l-.25034.4311A49.98012,49.98012,0,0,0,37.65011,98.46906l.48281.12276L49.87565,49.74505Z"/>
    <path class="cls-3" d="M22.25647,8.38816l-.41225.28127A50.55047,50.55047,0,0,0,7.06864,24.33185l-.25663.42723L49.91731,49.796Z"/>
    <path class="cls-4" d="M79.40659,9.47727l-.40306-.29384L49.88,49.74505,91.96774,77.06227l.26678-.42046A49.95438,49.95438,0,0,0,79.40659,9.47727Z"/>
    <path class="cls-5" d="M49.88,49.74068,37.81568,98.48614l.48474.116A49.95668,49.95668,0,0,0,91.84251,77.31036l.27306-.41756Z"/>
    <path class="cls-6" d="M78.81041,9.18752A49.61178,49.61178,0,0,0,62.59028,1.62309l-.48184-.12566L49.87128,49.77125,79.21638,9.47556Z"/>
  </g>
</svg>
