<?xml version="1.0" encoding="UTF-8"?><svg xmlns="http://www.w3.org/2000/svg" width="100" height="100" viewBox="0 0 100 100"><g style="isolation:isolate;"><g id="uuid-774f2f07-c2f2-4af8-b7e5-265696ba5321"><g><g><rect x="13.82" y=".37" width="71.12" height="30.11" style="fill:#dbdada;"/><path d="M84.57,.75V30.11H14.2V.75H84.57M85.32,0H13.45V30.86H85.32V0h0Z" style="fill:#dbdada;"/></g><rect width="14.82" height="30.86" style="fill:#df1f26;"/><rect x="85.15" width="14.82" height="30.86" style="fill:#069547;"/><rect y="39.74" width="14.82" height="16.34" style="fill:#fdb913;"/><rect y="61.77" width="14.82" height="16.34" style="fill:#f47424;"/><rect y="86.91" width="14.82" height="13.08" style="fill:#4b6bb3;"/><g><path d="M51.34,79.11c5.63-1.75,11.29-3.46,16.98-4.74-7.17-2.46-14.37-5.96-21.62-9.24-2.81,1.83-5.62,3.61-8.45,5.24,4.34,2.69,8.71,5.74,13.09,8.75Z" style="fill:none;"/><g style="mix-blend-mode:multiply;"><path d="M14.84,86.87v13.13c11.61,0,22.96-7.12,34.17-11.79-3.79-1.74-7.6-3.45-11.43-4.96-7.57,2.08-15.13,3.62-22.75,3.62Z" style="fill:#dbdada;"/></g><g style="mix-blend-mode:multiply;"><path d="M51.34,79.11c2.52,1.72,5.04,3.43,7.57,5.03,8.83-3.49,17.61-6.42,26.4-6.42v-.11c-5.66,0-11.31-1.29-16.98-3.23-5.7,1.27-11.35,2.98-16.98,4.74Z" style="fill:#dbdada;"/></g><g style="mix-blend-mode:multiply;"><path d="M85.29,47.18v-9.02c-7.52,0-14.93,2.87-22.27,6.82-3.1,1.67-6.19,3.52-9.27,5.44,3.42,1.31,6.86,2.56,10.3,3.67,.3-.17,.6-.34,.9-.5,6.79-3.75,13.56-6.4,20.33-6.4Z" style="fill:#dbdada;"/></g><g style="mix-blend-mode:multiply;"><path d="M14.84,78.11s.05,0,.07,0c-.02,0-.05,0-.07,0h0Z" style="fill:#dbdada;"/></g><path d="M46.69,65.13c-3.35-1.52-6.71-2.99-10.09-4.29-2.86,1.55-5.72,2.93-8.58,4.04,3.4,1.47,6.8,3.36,10.22,5.48,2.83-1.63,5.64-3.41,8.45-5.24Z" style="fill:#dbdada;"/><g style="mix-blend-mode:multiply;"><path d="M14.8,56.04v.05c7.36,0,14.62,1.99,21.81,4.76,1.44-.78,2.87-1.6,4.31-2.45-8.6-1.32-17.29-2.36-26.12-2.36Z" style="fill:#dbdada;"/></g><g style="mix-blend-mode:multiply;"><path d="M46.69,65.13c7.25,3.29,14.45,6.79,21.62,9.24,5.61-1.25,11.26-1.92,16.98-1.92v-.24c-9.45,0-18.8-5.13-28.06-11.17-1.16-.19-2.32-.37-3.48-.57-2.35,1.54-4.7,3.11-7.06,4.65Z" style="fill:#dbdada;"/></g><path d="M85.3,77.7v-5.44c-5.72,0-11.37,.86-16.98,2.11,5.67,1.94,11.33,3.32,16.98,3.32Z" style="fill:#bbb;"/><path d="M53.76,60.48c-4.26-.7-8.54-1.43-12.84-2.09-1.44,.85-2.87,1.67-4.31,2.45,3.38,1.3,6.74,2.77,10.09,4.29,2.36-1.54,4.71-3.11,7.06-4.65Z" style="fill:#bbb;"/><g style="mix-blend-mode:multiply;"><path d="M38.25,70.37c-7.69,4.43-15.45,7.73-23.34,7.75,7.65,.02,15.2,2.19,22.68,5.14,4.58-1.26,9.16-2.71,13.75-4.14-4.38-3-8.75-6.05-13.09-8.75Z" style="fill:#dbdada;"/></g><g style="mix-blend-mode:multiply;"><path d="M28.02,64.89c-4.43-1.91-8.84-3.1-13.23-3.1v16.32s.03,0,.04,0v-10.48c4.41,0,8.8-1.04,13.19-2.74Z" style="fill:#dbdada;"/></g><g style="mix-blend-mode:multiply;"><path d="M85.3,99.85v-5.91c-8.88,0-17.68-4.25-26.4-9.79-3.29,1.3-6.58,2.69-9.89,4.07,12.2,5.59,24.24,11.64,36.29,11.64Z" style="fill:#dbdada;"/></g><path d="M37.59,83.25c3.83,1.51,7.63,3.22,11.43,4.96,3.31-1.38,6.6-2.77,9.89-4.07-2.53-1.61-5.05-3.31-7.57-5.03-4.59,1.43-9.17,2.88-13.75,4.14Z" style="fill:#bbb;"/><path d="M28.02,64.89c-4.39,1.69-8.78,2.74-13.19,2.74v10.48s.05,0,.07,0c7.89-.02,15.65-3.32,23.34-7.75-3.42-2.12-6.83-4.01-10.22-5.48Z" style="fill:#bbb;"/><g style="mix-blend-mode:multiply;"><path d="M53.75,50.42c-13.16-5.02-26.14-10.71-38.96-10.71v.05c10.75,0,21.63,7.1,32.63,14.64,2.11-1.33,4.22-2.66,6.33-3.98Z" style="fill:#dbdada;"/></g><g style="mix-blend-mode:multiply;"><path d="M85.3,57.94c-7.13,0-14.21-1.6-21.24-3.86-2.99,1.69-5.98,3.57-8.99,5.53,.72,.48,1.44,.96,2.17,1.43,9.4,1.51,18.73,2.78,28.06,2.78v-5.89Z" style="fill:#dbdada;"/></g><path d="M55.07,59.62c3-1.96,6-3.84,8.99-5.53-3.45-1.1-6.88-2.36-10.3-3.67-2.11,1.31-4.22,2.65-6.33,3.98,2.54,1.74,5.09,3.51,7.65,5.22Z" style="fill:#bbb;"/><path d="M53.76,60.48c1.16,.19,2.32,.38,3.48,.57-.72-.47-1.44-.95-2.17-1.43-.44,.29-.88,.57-1.32,.86Z" style="fill:#bbb;"/><path d="M47.42,54.4c-11-7.54-21.87-14.64-32.63-14.64v16.28c5.52,0,10.98,.41,16.4,1.03,3.25,.38,6.49,.83,9.72,1.33,2.17-1.28,4.34-2.63,6.51-3.99Z" style="fill:#bbb;"/><path d="M40.91,58.39c4.3,.66,8.58,1.38,12.84,2.09,.44-.29,.88-.58,1.32-.86-2.56-1.71-5.11-3.47-7.65-5.22-2.17,1.36-4.34,2.71-6.51,3.99Z" style="fill:#9f9f9f;"/></g><rect x="85.18" y="38.16" width="14.82" height="9.04" style="fill:#b94a9b;"/><rect x="85.15" y="57.92" width="14.82" height="5.92" style="fill:#4b6bb3;"/><rect x="85.15" y="93.93" width="14.82" height="5.92" style="fill:#fdb913;"/><rect x="85.15" y="72.23" width="14.82" height="5.5" style="fill:#f47424;"/></g></g></g></svg>