<?xml version="1.0" encoding="UTF-8"?><svg id="uuid-d5a2813c-d08f-4f47-8266-40000e511a90" xmlns="http://www.w3.org/2000/svg" width="94.73" height="62.46" viewBox="0 0 94.73 62.46"><path d="m46.36,1.87c-15.43,0-27.94,12.51-27.94,27.94s12.51,27.94,27.94,27.94,27.94-12.51,27.94-27.94S61.79,1.87,46.36,1.87h0Zm15.93,43.86c-.47.5-1.13.77-1.81.77-.68.01-1.34-.27-1.8-.77l-6.88-6.85c-2.34,1.64-5.14,2.5-8,2.48-3.75,0-7.34-1.49-10-4.12-1.28-1.3-2.3-2.83-3-4.51-1.49-3.52-1.49-7.48,0-11,.7-1.68,1.72-3.21,3-4.51,5.54-5.5,14.48-5.47,19.98.06,2.63,2.65,4.11,6.23,4.11,9.96.03,2.86-.84,5.66-2.48,8l6.88,6.87c1,.99,1,2.61,0,3.61,0,0,0,0,0,0h0Z" style="fill:#ccc;"/><path d="m43.8,18.26c-4.97,0-9,4.03-9,9-.03,4.97,3.97,9.03,8.94,9.06,4.97.03,9.03-3.97,9.06-8.94.02-2.42-.95-4.75-2.67-6.46-1.65-1.72-3.94-2.69-6.33-2.66Z" style="fill:#ccc;"/><path d="m6.28,35.78c.15,0,.22.09.22.18,0,.07-.04.14-.1.19l-1.42,1.38.34,2v.07s.02.09,0,.14c-.03.04-.07.06-.12.06-.05.01-.11.01-.16,0l-1.75-.92-1.75.92c-.05.01-.11.01-.16,0-.05,0-.09-.02-.12-.06-.02-.05-.02-.09,0-.14v-.07l.34-2-1.5-1.38c-.06-.05-.09-.12-.1-.19,0-.09.07-.15.22-.18l2-.28.88-1.78c0-.11.11-.16.19-.16s.14,0,.19.16l.88,1.78,2,.28h-.08Z" style="fill:#e5e5e5;"/><path d="m81.54,47.08c.15,0,.22.08.22.18,0,.07-.04.14-.1.18l-1.42,1.39.34,2v.08s.01.09,0,.14c-.04.02-.08.02-.12,0-.05.01-.11.01-.16,0l-1.75-.92-1.75.92c-.05.01-.11.01-.16,0h-.12s-.01-.09,0-.14v-.08l.34-2-1.42-1.39c-.05-.05-.09-.11-.1-.18,0-.1.07-.16.22-.18l2-.29.88-1.77c0-.11.11-.17.19-.17s.14.06.19.17l.88,1.77,2,.29h-.16Z" style="fill:#e5e5e5;"/><path d="m75.04,2.22c.15,0,.22.08.22.18,0,.07-.04.14-.1.19l-1.42,1.38.34,1.95v.08s.02.09,0,.14c-.03.04-.07.06-.12.06-.06,0-.11-.02-.16-.05l-1.75-.92-1.75.92s-.1.05-.16.05c-.05,0-.1-.02-.12-.06-.02-.05-.02-.09,0-.14v-.08l.34-1.95-1.47-1.38c-.06-.05-.09-.12-.1-.19,0-.1.07-.16.22-.18l2-.29.88-1.77c0-.11.11-.16.19-.16s.14,0,.19.16l.88,1.77,2,.29h-.11Z" style="fill:#e5e5e5;"/><path d="m94.4,28.43c.22,0,.33.09.33.27-.01.11-.07.21-.15.28l-2.15,2.1.51,3v.12c0,.05-.02.1-.05.15-.04.06-.11.09-.18.09-.09,0-.17-.03-.24-.08l-2.65-1.39-2.67,1.38c-.07.05-.15.07-.23.08-.07,0-.15-.03-.19-.09-.04-.06-.06-.14-.06-.21,0-.04,0-.08,0-.12l.51-3-2.15-2.1c-.08-.07-.14-.17-.15-.28,0-.15.11-.24.33-.27l3-.44,1.31-2.57c.07-.16.17-.24.29-.24s.21.08.29.24l1.33,2.69,3,.44-.03-.05Z" style="fill:#e5e5e5;"/><path d="m14.89,3.35c.22.04.33.13.33.27,0,.11-.06.22-.15.29l-2.18,2.1.51,3s0,.08,0,.12c0,.07-.02.15-.06.21-.04.05-.11.08-.18.08-.09,0-.17-.02-.24-.07l-2.66-1.39-2.6,1.39c-.07.04-.16.07-.24.07-.07,0-.14-.03-.18-.08-.04-.06-.07-.13-.07-.21,0-.04,0-.08,0-.12l.51-3-2.16-2.09c-.08-.07-.14-.18-.15-.29,0-.14.12-.23.34-.27l3-.43L10.04.24c.08-.16.18-.24.29-.24s.22.08.29.24l1.27,2.69,3,.42Z" style="fill:#e5e5e5;"/><path d="m28.89,56.35c.22,0,.33.09.33.27-.01.11-.06.21-.15.28l-2.18,2.14.51,3v.12c0,.07-.02.15-.06.21-.04.06-.11.09-.18.09-.08,0-.17-.03-.24-.07l-2.65-1.4-2.63,1.36c-.07.04-.15.06-.23.07-.07,0-.15-.03-.19-.09-.04-.06-.06-.14-.06-.21,0-.04,0-.08,0-.12l.51-3-2.15-2.1c-.08-.07-.14-.17-.15-.28,0-.15.11-.24.33-.27l3-.43,1.33-2.7c.08-.16.17-.24.29-.24s.21.08.29.24l1.28,2.74,3,.39Z" style="fill:#e5e5e5;"/></svg>