<?xml version="1.0" encoding="UTF-8"?><svg id="a" xmlns="http://www.w3.org/2000/svg" width=".41in" height=".43in" xmlns:xlink="http://www.w3.org/1999/xlink" viewBox="0 0 29.69 30.68"><defs><linearGradient id="b" x1="0" y1="4855.7" x2="12.98" y2="4855.7" gradientTransform="translate(0 -4846.51)" gradientUnits="userSpaceOnUse"><stop offset="0" stop-color="#0078db"/><stop offset="1" stop-color="#00ccf9"/></linearGradient><linearGradient id="c" x1="16.71" y1="4855.69" x2="29.69" y2="4855.69" gradientTransform="translate(0 -4846.51)" gradientUnits="userSpaceOnUse"><stop offset="0" stop-color="#00ccf9"/><stop offset="1" stop-color="#0078db"/></linearGradient><linearGradient id="d" x1="0" y1="10.52" x2="12.98" y2="10.52" gradientTransform="translate(0 32) scale(1 -1)" gradientUnits="userSpaceOnUse"><stop offset="0" stop-color="#0155a2"/><stop offset="1" stop-color="#0078db"/></linearGradient><linearGradient id="e" x1="16.71" y1="10.5" x2="29.69" y2="10.5" gradientTransform="translate(0 32) scale(1 -1)" gradientUnits="userSpaceOnUse"><stop offset="0" stop-color="#0078db"/><stop offset="1" stop-color="#0155a2"/></linearGradient></defs><path d="M6.38,14.34l-4.75,3.81C.98,18.67,0,18.21,0,17.37v-6.69C0,9.76,.42,8.9,1.14,8.33L11.36,.22c.66-.52,1.62-.05,1.62,.78V7.7c0,.92-.42,1.79-1.15,2.36l-5.45,4.29h0Z" style="fill:url(#b);"/><path d="M23.31,14.34l-5.45-4.29c-.72-.57-1.15-1.44-1.15-2.36V1c0-.84,.97-1.3,1.62-.78l10.22,8.11c.72,.57,1.14,1.43,1.14,2.35v6.69c0,.84-.97,1.3-1.63,.78l-4.75-3.81Z" style="fill:url(#c);"/><path d="M6.38,16.33L1.63,12.52c-.65-.52-1.63-.06-1.63,.78v6.69c0,.92,.42,1.78,1.14,2.35l10.22,8.11c.66,.52,1.62,.05,1.62-.78v-6.7c0-.8-.52-1.86-1.15-2.36l-5.45-4.29h0Z" style="fill:url(#d);"/><path d="M23.31,16.33l-5.45,4.29c-.72,.57-1.15,1.44-1.15,2.36v6.7c0,.84,.97,1.3,1.62,.78l10.22-8.11c.72-.57,1.14-1.43,1.14-2.35v-6.69c0-.84-.97-1.3-1.63-.78l-4.75,3.81h0Z" style="fill:url(#e);"/></svg>