<?xml version="1.0" encoding="UTF-8"?><svg id="uuid-e3ee6f41-928a-478d-9356-e68b8db75b59" xmlns="http://www.w3.org/2000/svg" width="150" height="100" viewBox="0 0 150 100"><rect x="0" width="150" height="100" rx="5" ry="5" style="fill:#f5f6f7;"/><line x1="47.05" y1="27.83" x2="65.38" y2="27.83" style="fill:none; stroke:#ccc; stroke-width:1.5px;"/><polygon points="47.05 29.91 42.86 27.83 47.05 25.72 47.05 29.91" style="fill:#ccc;"/><line x1="75.64" y1="41.81" x2="75.64" y2="63.18" style="fill:none; stroke:#ccc; stroke-width:1.5px;"/><polygon points="73.56 42.31 75.64 38.12 77.72 42.31 73.56 42.31" style="fill:#ccc;"/><polyline points="117.16 37.96 117.16 49.34 55.65 49.34 55.65 72.4 46.91 72.4" style="fill:none; stroke:#ccc; stroke-width:1.5px;"/><polygon points="47.41 74.47 43.22 72.4 47.41 70.32 47.41 74.47" style="fill:#ccc;"/><polyline points="117.13 37.69 117.13 49.34 101.74 49.34 101.74 72.4 89.99 72.4" style="fill:none; isolation:isolate; opacity:.7; stroke:#999; stroke-width:1.5px;"/><polygon points="89.99 74.47 85.83 72.4 89.99 70.32 89.99 74.47" style="fill:#999; isolation:isolate; opacity:.65;"/><rect x="23.29" y="18.04" width="19.58" height="19.58" rx="1.6" ry="1.6" style="fill:none; stroke:#e53333; stroke-width:.75px;"/><g id="uuid-02cf2587-9c26-4ec1-9b96-4e525fdb9b64"><g id="uuid-613828a9-c20f-483e-87be-4e73230ed3a0"><rect id="uuid-17a58f38-c1ef-490b-87d4-b9b38956a759" x="22.79" y="61.83" width="20.49" height="20.49" rx="1.68" ry="1.68" style="fill:#e53333;"/></g><path id="uuid-8a3f1a58-fa9c-4836-96b0-8c2b19c67933" d="m36.37,72.08h1.28v-.51h-1.28v.51Zm-6.4,3.07h1.28v-.51h-1.28v.51Zm-2.56,0h1.79v-.51h-1.79v.51Zm0-1.54h3.07v-.51h-3.07v.51Zm0-3.07h2.31v-.51h-2.31v.51Zm0,1.54h8.45v-.51h-8.45v.51Zm4.87,5.63h-5.89v-8.71h5.89v2.05h.51v-2.31c0-.15-.11-.26-.26-.26h-6.4c-.15,0-.26.11-.26.26v9.22c0,.15.11.26.26.26h6.4c.15,0,.26-.11.26-.26v-5.12h-.51s0,4.87,0,4.87Zm7.94-6.4c0,1.65-1.5,2.23-2.27,2.31h-4.13v-.51h4.1s1.79-.18,1.79-1.79c0-1.46-1.32-1.76-1.57-1.79-.15-.04-.22-.15-.22-.26h0c0-.84-.51-1.1-.73-1.17-.4-.15-.88,0-1.1.33-.07.07-.15.11-.26.11s-.18-.07-.22-.18c-.15-.44-.4-.73-.7-1.06-.8-.8-1.9-1.02-2.93-.59-.55.22-.99.73-1.28,1.39l-.48-.18c.33-.8.91-1.39,1.57-1.68,1.21-.51,2.52-.26,3.48.7.26.29.51.55.7.88.37-.29.91-.37,1.39-.22.62.22,1.02.73,1.1,1.46.8.22,1.76.91,1.76,2.27h0Z" style="fill:#fff; fill-rule:evenodd;"/></g><g id="uuid-2b666be8-d930-48b9-8cb8-d85b075f6fdf"><rect id="uuid-bd59ae63-70ff-4fc8-8844-8a7def5fd1ca" x="65.35" y="61.83" width="20.49" height="20.49" rx="1.91" ry="1.91" style="fill:#f63;"/></g><path d="m82.44,68.31v-.51h-1.54v-.77c0-.15-.11-.26-.26-.26h-.77v-1.54h-.51v1.54h-1.02v-1.54h-.51v1.54h-1.02v-1.54h-.51v1.54h-1.02v-1.54h-.51v1.54h-1.02v-1.54h-.51v1.54h-1.02v-1.54h-.51v1.54h-.77c-.15,0-.26.11-.26.26v.77h-1.54v.51h1.54v1.02h-1.54v.51h1.54v1.02h-1.54v.51h1.54v1.02h-1.54v.51h1.54v1.02h-1.54v.51h1.54v1.02h-1.54v.51h1.54v.77c0,.15.11.26.26.26h.77v1.54h.51v-1.54h1.02v1.54h.51v-1.54h1.02v1.54h.51v-1.54h1.02v1.54h.51v-1.54h1.02v1.54h.51v-1.54h1.02v1.54h.51v-1.54h.77c.15,0,.26-.11.26-.26v-.77h1.54v-.51h-1.54v-1.02h1.54v-.51h-1.54v-1.02h1.54v-.51h-1.54v-1.02h1.54v-.51h-1.54v-1.02h1.54v-.51h-1.54v-1.02h1.54Zm-2.05,3.77v4.43h-9.22v-9.22h9.22v4.79Z" style="fill:#fff;"/><g id="uuid-28288005-6ceb-4718-a791-a9932e59633d"><path id="uuid-88a37fe8-c0f6-40a3-a3da-af4dad19c508" d="m33.13,28.45h0c.17,0,.34.09.47.21.13.13.21.3.21.47h0c0,.17-.09.34-.21.47-.13.13-.3.21-.47.21h0c-.39,0-.69-.3-.69-.69,0-.43.3-.69.69-.69h0Zm-.34,1.93v1.76h.69v-1.76c.21-.04.43-.17.6-.34.26-.26.39-.6.39-.95s-.13-.69-.39-.95-.6-.39-.95-.39h0c-.73,0-1.33.6-1.33,1.37-.04.6.39,1.12.99,1.25h0Zm4.9,3.44h-9.15v-7h9.15v7Zm-7.26-9.58c0-1.46,1.2-2.66,2.71-2.66h0c1.5,0,2.71,1.2,2.71,2.71v1.85h-5.41v-1.89Zm7.86,2.02c-.09-.09-.17-.09-.26-.09h-1.5v-1.85c0-1.85-1.5-3.39-3.39-3.39h0c-1.89,0-3.39,1.5-3.39,3.35v1.89h-1.5c-.09,0-.17.04-.26.09-.09.09-.09.17-.09.26v7.69c0,.17.17.34.34.34h9.84c.17,0,.34-.17.34-.34v-7.69c-.04-.13-.09-.21-.13-.26h0Z" style="fill:#e53333; fill-rule:evenodd;"/></g><rect x="65.92" y="18.04" width="19.58" height="19.58" rx="1.55" ry="1.55" style="fill:none; stroke:#e53333; stroke-width:.75px;"/><g id="uuid-ce17ee4c-5440-4d8c-b4e5-ac7c1295fb45"><path id="uuid-f6603d77-bb33-438f-955c-bfe0c4eee312" d="m75.76,28.45h0c.17,0,.34.09.47.21.13.13.21.3.21.47h0c0,.17-.09.34-.21.47-.13.13-.3.21-.47.21h0c-.39,0-.69-.3-.69-.69,0-.43.3-.69.69-.69h0Zm-.34,1.93v1.76h.69v-1.76c.21-.04.43-.17.6-.34.26-.26.39-.6.39-.95s-.13-.69-.39-.95-.6-.39-.95-.39h0c-.73,0-1.33.6-1.33,1.37-.04.6.39,1.12.99,1.25h0Zm4.9,3.44h-9.15v-7h9.15v7Zm-7.26-9.58c0-1.46,1.2-2.66,2.71-2.66h0c1.5,0,2.71,1.2,2.71,2.71v1.85h-5.41v-1.89Zm7.86,2.02c-.09-.09-.17-.09-.26-.09h-1.5v-1.85c0-1.85-1.5-3.39-3.39-3.39h0c-1.89,0-3.39,1.5-3.39,3.35v1.89h-1.5c-.09,0-.17.04-.26.09-.09.09-.09.17-.09.26v7.69c0,.17.17.34.34.34h9.84c.17,0,.34-.17.34-.34v-7.69c-.04-.13-.09-.21-.13-.26h0Z" style="fill:#e53333; fill-rule:evenodd;"/></g><g id="uuid-496734d1-7663-4f29-a3e4-57c90bdc0d46"><g id="uuid-564d4759-2b51-4315-8233-ed8b9b063750"><rect id="uuid-351af9f5-c9ed-408a-b6a0-16f53c4dff78" x="106.72" y="17.68" width="20.49" height="20.49" rx="1.68" ry="1.68" style="fill:#e53333;"/></g><path id="uuid-d866ade8-68d6-4c5a-a7a8-72eb2705c1f8" d="m120.29,27.92h1.28v-.51h-1.28v.51Zm-6.4,3.07h1.28v-.51h-1.28v.51Zm-2.56,0h1.79v-.51h-1.79v.51Zm0-1.54h3.07v-.51h-3.07v.51Zm0-3.07h2.31v-.51h-2.31v.51Zm0,1.54h8.45v-.51h-8.45v.51Zm4.87,5.63h-5.89v-8.71h5.89v2.05h.51v-2.31c0-.15-.11-.26-.26-.26h-6.4c-.15,0-.26.11-.26.26v9.22c0,.15.11.26.26.26h6.4c.15,0,.26-.11.26-.26v-5.12h-.51s0,4.87,0,4.87Zm7.94-6.4c0,1.65-1.5,2.23-2.27,2.31h-4.13v-.51h4.1s1.79-.18,1.79-1.79c0-1.46-1.32-1.76-1.57-1.79-.15-.04-.22-.15-.22-.26h0c0-.84-.51-1.1-.73-1.17-.4-.15-.88,0-1.1.33-.07.07-.15.11-.26.11s-.18-.07-.22-.18c-.15-.44-.4-.73-.7-1.06-.8-.8-1.9-1.02-2.93-.59-.55.22-.99.73-1.28,1.39l-.48-.18c.33-.8.91-1.39,1.57-1.68,1.21-.51,2.52-.26,3.48.7.26.29.51.55.7.88.37-.29.91-.37,1.39-.22.62.22,1.02.73,1.1,1.46.8.22,1.76.91,1.76,2.27h0Z" style="fill:#fff; fill-rule:evenodd;"/></g></svg>