<?xml version="1.0" encoding="UTF-8"?><svg id="uuid-98a7f54a-415d-4eec-9c25-fdde7ea72128" xmlns="http://www.w3.org/2000/svg" width="150" height="100" viewBox="0 0 150 100"><rect x="0" width="150" height="100" rx="5" ry="5" style="fill:#f5f6f7;"/><polyline points="58.75 49 58.76 63.07 64.29 63.07" style="fill:none; stroke:#ccc; stroke-miterlimit:10;"/><line x1="58.64" y1="39.08" x2="58.64" y2="32.4" style="fill:none; stroke:#ccc; stroke-miterlimit:10;"/><line x1="91.54" y1="39.08" x2="91.54" y2="32.4" style="fill:none; stroke:#ccc; stroke-miterlimit:10;"/><polyline points="25.67 38.12 25.67 32.8 124.1 32.8 124.1 38.97" style="fill:none; stroke:#ccc; stroke-miterlimit:10;"/><line x1="74.86" y1="26.15" x2="74.86" y2="32.73" style="fill:none; stroke:#ccc; stroke-miterlimit:10;"/><rect x="62.56" y="57.19" width="22.6" height="11.3" rx="1.8" ry="1.8" style="fill:#07b9ff;"/><polyline points="25.62 49 25.63 78.4 31.16 78.4" style="fill:none; stroke:#ccc; stroke-miterlimit:10;"/><line x1="25.53" y1="63.13" x2="34.87" y2="63.12" style="fill:none; stroke:#ccc; stroke-miterlimit:10;"/><rect x="29.43" y="72.64" width="22.6" height="11.3" rx="1.8" ry="1.8" style="fill:#2483ff;"/><rect x="29.43" y="57.19" width="22.6" height="11.3" rx="1.8" ry="1.8" style="fill:#2483ff;"/><polyline points="91.77 49 91.77 78.4 97.31 78.4" style="fill:none; stroke:#ccc; stroke-miterlimit:10;"/><line x1="91.68" y1="63.13" x2="101.01" y2="63.12" style="fill:none; stroke:#ccc; stroke-miterlimit:10;"/><rect x="95.58" y="72.64" width="22.6" height="11.3" rx="1.8" ry="1.8" style="fill:#d8df21;"/><rect x="95.58" y="57.19" width="22.6" height="11.3" rx="1.8" ry="1.8" style="fill:#d8df21;"/><rect x="112.76" y="37.74" width="22.6" height="11.3" rx="1.8" ry="1.8" style="fill:#ffb703;"/><rect x="14.64" y="37.74" width="22.6" height="11.3" rx="1.8" ry="1.8" style="fill:#2483ff;"/><rect x="47.65" y="38.05" width="22.6" height="11.3" rx="1.8" ry="1.8" style="fill:#07b9ff;"/><rect x="80.21" y="37.74" width="22.6" height="11.3" rx="1.8" ry="1.8" style="fill:#8bc53f;"/><rect x="63.83" y="16.06" width="22.6" height="11.3" rx="1.8" ry="1.8" style="fill:#1d75bc;"/></svg>