<?xml version="1.0" encoding="UTF-8"?><svg id="uuid-07c16ce3-fa80-43ca-a7f1-4fe3c8bde36c" xmlns="http://www.w3.org/2000/svg" width="150" height="100" viewBox="0 0 150 100"><rect width="150" height="100" rx="5" ry="5" style="fill:#f5f6f7; stroke-width:0px;"/><line x1="34.06" y1="32.56" x2="34.07" y2="52.14" style="fill:none; stroke:#ccc; stroke-miterlimit:10;"/><rect x="23.43" y="16.32" width="20.51" height="16.34" rx="1.51" ry="1.51" style="fill:#1d75bc; stroke-width:0px;"/><line x1="85.52" y1="23.46" x2="85.52" y2="51.99" style="fill:none; stroke:#ccc; stroke-miterlimit:10;"/><rect x="75.3" y="13.22" width="20.51" height="10.25" rx="1.51" ry="1.51" style="fill:#8bc53f; stroke-width:0px;"/><line x1="39.84" y1="55.46" x2="39.85" y2="72.7" style="fill:none; stroke:#ccc; stroke-miterlimit:10;"/><rect x="29.4" y="72.61" width="20.51" height="10.25" rx="1.51" ry="1.51" style="fill:#ffb703; stroke-width:0px;"/><line x1="58.08" y1="43.15" x2="58.08" y2="52.57" style="fill:none; stroke:#ccc; stroke-miterlimit:10;"/><rect x="48.01" y="33.1" width="20.51" height="10.25" rx="1.51" ry="1.51" style="fill:#07b9ff; stroke-width:0px;"/><line x1="81.9" y1="54.88" x2="81.9" y2="70.81" style="fill:none; stroke:#ccc; stroke-miterlimit:10;"/><rect x="72.07" y="70.01" width="20.51" height="16.77" rx="1.51" ry="1.51" style="fill:#f63; stroke-width:0px;"/><line x1="119.18" y1="55.17" x2="119.18" y2="63.72" style="fill:none; stroke:#ccc; stroke-miterlimit:10;"/><rect x="109.02" y="63.39" width="20.51" height="10.25" rx="1.51" ry="1.51" style="fill:#d8df21; stroke-width:0px;"/><line x1="112.06" y1="40.41" x2="112.06" y2="52.43" style="fill:none; stroke:#ccc; stroke-miterlimit:10;"/><rect x="102.03" y="21.66" width="20.51" height="18.94" rx="1.51" ry="1.51" style="fill:#ffb703; stroke-width:0px;"/><rect x="17.16" y="50.84" width="115.68" height="5.43" rx="1.56" ry="1.56" style="fill:#ccc; stroke-width:0px;"/></svg>