<?xml version="1.0" encoding="UTF-8"?><svg id="uuid-2163e9d7-819c-4e1e-af2b-df768ae01a5f" xmlns="http://www.w3.org/2000/svg" width="150" height="100" viewBox="0 0 150 100"><rect x="0" width="150" height="100" rx="5" ry="5" style="fill:#f5f6f7;"/><rect x="13.08" y="11.4" width="123.84" height="77.21" rx="5.57" ry="5.57" style="fill:#333;"/><g id="uuid-bb1b1991-d874-4210-b9eb-66cbcc0ba5d6"><path d="m29.11,30.88c.14-.39.32-.76.65-1.03.49-.4.97-.81,1.45-1.22.35-.3.69-.6,1.03-.9.51-.44,1.02-.87,1.52-1.3.3-.26.59-.53.91-.76.9-.65,2.34-.27,2.67.94.15.57.05,1.11-.37,1.54-.37.37-.78.7-1.17,1.05-.31.27-.63.53-.94.8-.45.39-.9.79-1.38,1.21.27.24.53.47.8.7.31.26.63.52.95.78.45.37.9.75,1.35,1.13.48.4.83.87.81,1.53-.02.76-.58,1.49-1.37,1.64-.59.11-1.08-.03-1.53-.42-.59-.5-1.2-.99-1.79-1.49-.42-.35-.84-.72-1.26-1.07-.52-.43-1.04-.85-1.55-1.29-.35-.3-.66-.62-.74-1.11,0-.02-.03-.03-.04-.04,0-.22,0-.45,0-.67Z" style="fill:#fff;"/><path d="m39.21,38.88c.06-.37.14-.86.23-1.34.1-.51.21-1.02.31-1.53.15-.73.29-1.46.43-2.19.11-.58.22-1.17.33-1.75.14-.73.29-1.46.43-2.19.13-.65.25-1.31.37-1.96.16-.81.32-1.62.48-2.43.11-.54.2-1.08.33-1.62.16-.63.69-1.11,1.37-1.19.51-.06.95.05,1.35.36.33.26.5.6.59,1.01.11.52-.08.99-.16,1.48-.09.58-.22,1.15-.34,1.72-.12.59-.24,1.18-.35,1.76-.14.72-.27,1.45-.41,2.18-.11.59-.24,1.18-.35,1.76-.14.73-.27,1.47-.41,2.2-.11.58-.23,1.15-.34,1.72-.13.66-.25,1.32-.37,1.99-.1.54-.22,1.06-.68,1.44-.62.51-1.6.58-2.24-.02-.38-.35-.58-.78-.57-1.42Z" style="fill:#fff;"/><path d="m51.64,31.2c-.6-.51-1.2-1.01-1.79-1.52-.58-.5-1.17-.99-1.71-1.54-.51-.52-.58-1.29-.18-1.99.54-.95,1.94-1.03,2.69-.33.65.6,1.35,1.15,2.03,1.73.49.42.96.84,1.45,1.26.48.42.96.82,1.43,1.25.28.25.39.59.44.97.11.76-.3,1.26-.82,1.71-.43.37-.87.72-1.3,1.08-.53.44-1.06.88-1.59,1.32-.41.34-.81.7-1.23,1.04-.38.31-.72.68-1.24.79-.66.14-1.27-.04-1.72-.58-.24-.29-.38-.64-.4-1.01-.02-.45.12-.89.45-1.21.39-.38.82-.71,1.23-1.07.41-.35.83-.71,1.24-1.06.33-.28.66-.56,1-.85Z" style="fill:#fff;"/></g><g id="uuid-d1b3ef7a-5683-43bd-925c-84a70a635f79"><path d="m29.11,69.2c.14-.39.32-.76.65-1.03.49-.4.97-.81,1.45-1.22.35-.3.69-.6,1.03-.9.51-.44,1.02-.87,1.52-1.3.3-.26.59-.53.91-.76.9-.65,2.34-.27,2.67.94.15.57.05,1.11-.37,1.54-.37.37-.78.7-1.17,1.05-.31.27-.63.53-.94.8-.45.39-.9.79-1.38,1.21.27.24.53.47.8.7.31.26.63.52.95.78.45.37.9.75,1.35,1.13.48.4.83.87.81,1.53-.02.76-.58,1.49-1.37,1.64-.59.11-1.08-.03-1.53-.42-.59-.5-1.2-.99-1.79-1.49-.42-.35-.84-.72-1.26-1.07-.52-.43-1.04-.85-1.55-1.29-.35-.3-.66-.62-.74-1.11,0-.02-.03-.03-.04-.04,0-.22,0-.45,0-.67Z" style="fill:#fff;"/><path d="m39.21,77.2c.06-.37.14-.86.23-1.34.1-.51.21-1.02.31-1.53.15-.73.29-1.46.43-2.19.11-.58.22-1.17.33-1.75.14-.73.29-1.46.43-2.19.13-.65.25-1.31.37-1.96.16-.81.32-1.62.48-2.43.11-.54.2-1.08.33-1.62.16-.63.69-1.11,1.37-1.19.51-.06.95.05,1.35.36.33.26.5.6.59,1.01.11.52-.08.99-.16,1.48-.09.58-.22,1.15-.34,1.72-.12.59-.24,1.18-.35,1.76-.14.72-.27,1.45-.41,2.18-.11.59-.24,1.18-.35,1.76-.14.73-.27,1.47-.41,2.2-.11.58-.23,1.15-.34,1.72-.13.66-.25,1.32-.37,1.99-.1.54-.22,1.06-.68,1.44-.62.51-1.6.58-2.24-.02-.38-.35-.58-.78-.57-1.42Z" style="fill:#fff;"/><path d="m51.64,69.52c-.6-.51-1.2-1.01-1.79-1.52-.58-.5-1.17-.99-1.71-1.54-.51-.52-.58-1.29-.18-1.99.54-.95,1.94-1.03,2.69-.33.65.6,1.35,1.15,2.03,1.73.49.42.96.84,1.45,1.26.48.42.96.82,1.43,1.25.28.25.39.59.44.97.11.76-.3,1.26-.82,1.71-.43.37-.87.72-1.3,1.08-.53.44-1.06.88-1.59,1.32-.41.34-.81.7-1.23,1.04-.38.31-.72.68-1.24.79-.66.14-1.27-.04-1.72-.58-.24-.29-.38-.64-.4-1.01-.02-.45.12-.89.45-1.21.39-.38.82-.71,1.23-1.07.41-.35.83-.71,1.24-1.06.33-.28.66-.56,1-.85Z" style="fill:#fff;"/></g><rect x="51.81" y="41.29" width="11.65" height="4.82" style="fill:#fff;"/><rect x="66.26" y="41.29" width="17.08" height="4.82" style="fill:#ffb703;"/><rect x="57.48" y="47.69" width="18.62" height="4.82" style="fill:#fff;"/><rect x="52.13" y="54.09" width="18.62" height="4.82" style="fill:#fff;"/><rect x="73.52" y="54.09" width="7.87" height="4.82" style="fill:#d8df21;"/><rect x="86.01" y="41.29" width="28.1" height="4.82" style="fill:#ffb703;"/><rect x="79" y="47.69" width="18.62" height="4.82" style="fill:#fff;"/><rect x="84.42" y="54.09" width="19.34" height="4.82" style="fill:#d8df21;"/></svg>