<?xml version="1.0" encoding="UTF-8"?><svg id="uuid-98d0a0de-c6ac-45c2-b786-48c627302ffc" xmlns="http://www.w3.org/2000/svg" width="150" height="100" viewBox="0 0 150 100"><rect y="0" width="150" height="100" rx="5" ry="5" style="fill:#f5f6f7; stroke-width:0px;"/><rect x="16.15" y="69.43" width="28.77" height="20.09" rx="1.24" ry="1.24" style="fill:#ffb703; stroke-width:0px;"/><rect x="16.15" y="47.69" width="28.77" height="20.09" rx="1.24" ry="1.24" style="fill:#ffb703; stroke-width:0px;"/><rect x="16.15" y="25.96" width="28.77" height="20.09" rx="1.24" ry="1.24" style="fill:#ffb703; stroke-width:0px;"/><rect x="16.15" y="15.84" width="118.8" height="8.45" rx="1.24" ry="1.24" style="fill:#ccc; stroke-width:0px;"/><rect x="107.58" y="80.35" width="20.35" height="8.45" rx="1.24" ry="1.24" style="fill:#f63; stroke-width:0px;"/><rect x="50.62" y="53.56" width="20.35" height="8.45" rx="1.24" ry="1.24" style="fill:#1d75bc; stroke-width:0px;"/><line x1="105.17" y1="25.09" x2="105.17" y2="90.49" style="fill:none; stroke:#989898; stroke-miterlimit:10; stroke-width:.23px;"/><line x1="46" y1="25.09" x2="46" y2="90.49" style="fill:none; stroke:#989898; stroke-miterlimit:10; stroke-width:.23px;"/><line x1="75.59" y1="25.09" x2="75.59" y2="90.49" style="fill:none; stroke:#989898; stroke-miterlimit:10; stroke-width:.23px;"/><line x1="134.75" y1="25.09" x2="134.75" y2="90.49" style="fill:none; stroke:#989898; stroke-miterlimit:10; stroke-width:.23px;"/><line x1="16.34" y1="46.81" x2="134.72" y2="46.81" style="fill:none; stroke:#989898; stroke-miterlimit:10; stroke-width:.23px;"/><line x1="16.52" y1="90.5" x2="134.72" y2="90.5" style="fill:none; stroke:#989898; stroke-miterlimit:10; stroke-width:.23px;"/><line x1="16.34" y1="68.66" x2="134.72" y2="68.66" style="fill:none; stroke:#989898; stroke-miterlimit:10; stroke-width:.23px;"/><rect x="107.46" y="26.88" width="20.35" height="8.45" rx="1.24" ry="1.24" style="fill:#d8df21; stroke-width:0px;"/><rect x="107.58" y="36.89" width="20.35" height="8.45" rx="1.24" ry="1.24" style="fill:#d8df21; stroke-width:0px;"/><rect x="107.46" y="70.35" width="20.35" height="8.45" rx="1.24" ry="1.24" style="fill:#f63; stroke-width:0px;"/><rect x="80.37" y="53.56" width="20.35" height="8.45" rx="1.24" ry="1.24" style="fill:#2483ff; stroke-width:0px;"/><rect x="80.37" y="36.49" width="20.35" height="8.45" rx="1.24" ry="1.24" style="fill:#8bc53f; stroke-width:0px;"/><rect x="107.46" y="53.53" width="20.35" height="8.45" rx="1.24" ry="1.24" style="fill:#07b9ff; stroke-width:0px;"/><line x1="100.67" y1="58.03" x2="104.85" y2="58.03" style="fill:none; stroke:#999; stroke-miterlimit:10;"/><polygon points="104.41 59.53 107 58.03 104.41 56.53 104.41 59.53" style="fill:#999; stroke-width:0px;"/><line x1="70.93" y1="58.03" x2="77.61" y2="58.03" style="fill:none; stroke:#999; stroke-miterlimit:10;"/><polygon points="77.17 59.53 79.76 58.03 77.17 56.53 77.17 59.53" style="fill:#999; stroke-width:0px;"/><path d="M117.18,53.76c0-1.95-.13-4.83,7.52-4.83,6.67,0,9.18-6.3,5.3-7.91" style="fill:none; stroke:#999; stroke-miterlimit:10;"/><polygon points="130.72 39.75 127.87 40.65 130.08 42.67 130.72 39.75" style="fill:#999; stroke-width:0px;"/><path d="M127.76,74.8s3.84-.17,3.78-4.48c-.06-4.31-2.46-4.54-7.23-4.54-3.78,0-6.51.43-7.29-1.59" style="fill:none; stroke:#999; stroke-miterlimit:10;"/><polygon points="118.66 64.41 116.83 62.04 115.7 64.81 118.66 64.41" style="fill:#999; stroke-width:0px;"/></svg>