<?xml version="1.0" encoding="UTF-8"?><svg id="uuid-d20c119f-5c7e-49ec-bc38-976daea1621b" xmlns="http://www.w3.org/2000/svg" width="150" height="100" viewBox="0 0 150 100"><rect x="0" width="150" height="100" rx="5" ry="5" style="fill:#f5f6f7;"/><rect x="15.32" y="43.82" width="23.61" height="11.8" rx="1.73" ry="1.73" style="fill:#1d75bc;"/><polyline points="47.53 29.61 39.68 49.96 47.67 70.46" style="fill:none; stroke:#ccc; stroke-miterlimit:10;"/><rect x="47.32" y="64.55" width="23.61" height="11.8" rx="1.73" ry="1.73" style="fill:#07b9ff;"/><rect x="47.34" y="23.67" width="23.61" height="11.8" rx="1.73" ry="1.73" style="fill:#07b9ff;"/><polyline points="79.39 19.88 71.53 29.23 79.52 38.73" style="fill:none; stroke:#ccc; stroke-miterlimit:10;"/><rect x="79.17" y="32.8" width="23.61" height="11.8" rx="1.73" ry="1.73" style="fill:#8bc53f;"/><rect x="79.2" y="13.95" width="23.61" height="11.8" rx="1.73" ry="1.73" style="fill:#8bc53f;"/><polyline points="79.39 61.32 71.53 70.67 79.52 80.17" style="fill:none; stroke:#ccc; stroke-miterlimit:10;"/><rect x="79.17" y="74.24" width="23.61" height="11.8" rx="1.73" ry="1.73" style="fill:#ffb703;"/><rect x="79.2" y="55.39" width="23.61" height="11.8" rx="1.73" ry="1.73" style="fill:#ffb703;"/><polyline points="111.26 29.07 103.41 38.93 111.39 48.92" style="fill:none; stroke:#ccc; stroke-miterlimit:10;"/><rect x="111.05" y="43" width="23.61" height="11.8" rx="1.73" ry="1.73" style="fill:#d8df21;"/><rect x="111.07" y="23.15" width="23.61" height="11.8" rx="1.73" ry="1.73" style="fill:#d8df21;"/></svg>