<?xml version="1.0" encoding="UTF-8"?><svg id="uuid-40fcc1dc-5cbc-4f58-abef-2b90818bed05" xmlns="http://www.w3.org/2000/svg" width="150" height="100" viewBox="0 0 150 100"><rect x="0" width="150" height="100" rx="5" ry="5" style="fill:#f5f6f7;"/><g id="uuid-d725fa56-14c5-492a-9f2f-63b797d40a2f"><line id="uuid-04b8e110-44d8-4ef2-acdd-a5730b7f17db" x1="116.88" y1="37.11" x2="116.88" y2="60.7" style="fill:none; stroke:#ccc; stroke-miterlimit:4.22; stroke-width:.85px;"/><line id="uuid-45338528-9fea-487f-90fa-f7a9153a0e4c" x1="91.14" y1="47.2" x2="116.7" y2="47.2" style="fill:none; stroke:#ccc; stroke-miterlimit:4.22; stroke-width:.85px;"/><polyline id="uuid-6f7ed719-91cc-459f-b0e6-38bbc3ea61ad" points="49.91 83.35 61.32 83.35 61.32 76.75 67.98 76.75" style="fill:none; stroke:#ccc; stroke-miterlimit:4.22; stroke-width:.85px;"/><polyline id="uuid-f8f838a9-9ba2-42bd-a378-256532ca43f6" points="49.73 76.4 55.79 76.4 55.79 28.21 68.16 28.21" style="fill:none; stroke:#ccc; stroke-miterlimit:4.22; stroke-width:.85px;"/><polyline id="uuid-49e61683-4695-41ce-9845-2a1d5438ec92" points="49.54 55.48 60.77 55.48 60.77 36.58 97.49 36.58 97.49 24.81 105.83 24.81" style="fill:none; stroke:#ccc; stroke-miterlimit:4.22; stroke-width:.85px;"/><line id="uuid-94956188-0ccb-4c2a-8826-c334ddd562f0" x1="91.15" y1="20.54" x2="106.2" y2="20.54" style="fill:none; stroke:#ccc; stroke-miterlimit:4.22; stroke-width:.85px;"/><polyline id="uuid-ac5375e2-169d-4b1e-ac54-795341a04a65" points="26.8 55.41 21.17 55.41 21.03 24.78 26.6 24.78" style="fill:none; stroke:#ccc; stroke-miterlimit:4.22; stroke-width:.85px;"/><g id="uuid-9ee54e61-9306-422e-8185-b8e49eb8395b"><rect id="uuid-35360e9e-4532-475e-ab65-94430be01cc2" x="105.84" y="69.78" width="22.73" height="3.56" style="fill:#e2e2e2;"/><rect id="uuid-c04c1dde-3f23-471a-b486-c6ec5da0a8f4" x="105.84" y="76.73" width="22.73" height="3.56" style="fill:#e2e2e2;"/><path id="uuid-088ebbee-e053-4096-9921-e8b857e94dfc" d="m128.48,60.47c.14,0,.25.05.35.14s.14.21.14.35v25.11c0,.14-.05.25-.14.35s-.21.14-.35.14h-22.45c-.14,0-.25-.05-.35-.14s-.14-.21-.14-.57v-24.92s0-.18.1-.32c.07-.09.18-.14.39-.14h22.44Zm-.16,25.44v-20.86h-22.12v20.86h22.12Z" style="fill:#1d75bc;"/><path id="uuid-d8aae4e8-dfe5-474b-8c6c-ee2edb1946d2" d="m118.85,67.76v.59c0,.08-.03.15-.09.21s-.13.09-.21.09h-9.49c-.08,0-.15-.03-.21-.09s-.09-.13-.09-.21v-.59c0-.08.03-.15.09-.21s.13-.09.21-.09h9.49c.08,0,.15.03.21.09s.09.13.09.21Z" style="fill:#999;"/><path id="uuid-c9978aee-35c5-4d89-be41-b00f67d78ce9" d="m114.66,71.21v.59c0,.08-.03.15-.09.21s-.13.09-.21.09h-5.3c-.08,0-.15-.03-.21-.09s-.09-.13-.09-.21v-.59c0-.08.03-.15.09-.21s.13-.09.21-.09h5.3c.08,0,.15.03.21.09s.09.13.09.21Z" style="fill:#999;"/><path id="uuid-5b9fcf5d-f321-4fd9-a80b-f7c13b955dcb" d="m117.28,74.67v.59c0,.08-.03.15-.09.21s-.13.09-.21.09h-7.92c-.08,0-.15-.03-.21-.09s-.09-.13-.09-.21v-.59c0-.08.03-.15.09-.21s.13-.09.21-.09h7.92c.08,0,.15.03.21.09s.09.13.09.21Z" style="fill:#999;"/><path id="uuid-79b111aa-a379-4b68-939c-0299635358ae" d="m116.23,78.13v.59c0,.08-.03.15-.09.21s-.13.09-.21.09h-6.87c-.08,0-.15-.03-.21-.09s-.09-.13-.09-.21v-.59c0-.08.03-.15.09-.21s.13-.09.21-.09h6.87c.08,0,.15.03.21.09s.09.13.09.21Z" style="fill:#999;"/><path id="uuid-1c76d881-5fdc-47dd-9938-2a56e1c8d7ef" d="m119.83,78.13v.59c0,.08-.03.15-.09.21s-.13.09-.21.09h-2.29c-.08,0-.15-.03-.21-.09s-.09-.13-.09-.21v-.59c0-.08.03-.15.09-.21s.13-.09.21-.09h2.29c.08,0,.15.03.21.09s.09.13.09.21Z" style="fill:#999;"/><path id="uuid-08601aff-cb7c-485d-b705-588d7c70c612" d="m119.51,81.58v.59c0,.08-.03.15-.09.21s-.13.09-.21.09h-10.15c-.08,0-.15-.03-.21-.09s-.09-.13-.09-.21v-.59c0-.08.03-.15.09-.21s.13-.09.21-.09h10.15c.08,0,.15.03.21.09s.09.13.09.21Z" style="fill:#999;"/><path id="uuid-9e8169b8-11c1-47c7-b966-b6bfe5a074df" d="m114.66,62.51v.59c0,.08-.03.15-.09.21s-.13.09-.21.09h-5.3c-.08,0-.15-.03-.21-.09s-.09-.13-.09-.21v-.59c0-.08.03-.15.09-.21s.13-.09.21-.09h5.3c.08,0,.15.03.21.09s.09.13.09.21Z" style="fill:#fff;"/></g><g id="uuid-ca1adac1-f8b7-476a-8a3b-13a501707408"><path id="uuid-0d97aadc-ac88-4fcc-9baf-8c1b1efb4b23" d="m90.91,69.18c.14,0,.25.05.35.14s.14.21.14.35v10.71c0,.14-.05.25-.14.35s-.21.14-.35.14h-22.45c-.14,0-.25-.05-.35-.14s-.14-.21-.14-.57c0-10.56,0-10.51,0-10.51,0,0,0-.18.1-.32.07-.09.18-.14.39-.14h22.44Zm-.16,11.04v-6.45h-22.12v6.45h22.12Z" style="fill:#1d75bc;"/><path id="uuid-69267214-6635-4ced-889d-fd3b9ed90541" d="m81.28,76.46v.59c0,.08-.03.15-.09.21s-.13.09-.21.09h-9.49c-.08,0-.15-.03-.21-.09s-.09-.13-.09-.21v-.59c0-.08.03-.15.09-.21s.13-.09.21-.09h9.49c.08,0,.15.03.21.09s.09.13.09.21Z" style="fill:#999;"/><path id="uuid-dd9fe2f0-2038-4a48-b46c-1b980cc9fe0a" d="m77.09,71.27v.59c0,.08-.03.15-.09.21s-.13.09-.21.09h-5.3c-.08,0-.15-.03-.21-.09s-.09-.13-.09-.21v-.59c0-.08.03-.15.09-.21s.13-.09.21-.09h5.3c.08,0,.15.03.21.09s.09.13.09.21Z" style="fill:#fff;"/></g><g id="uuid-3676a81a-5e81-4f6e-95ca-a65b954448fc"><rect id="uuid-50496eb0-d05b-4aa7-b8e6-0b7ff1565242" x="27.04" y="78.48" width="22.73" height="3.56" style="fill:#e2e2e2;"/><path id="uuid-5d63aba9-abd7-44e4-bc2a-f7b66c0db1ea" d="m49.67,69.18c.14,0,.25.05.35.14s.14.21.14.35v15.95c0,.14-.05.25-.14.35s-.21.14-.35.14h-22.44c-.14,0-.25-.05-.35-.14s-.14-.21-.14-.57c0-22.29,0-15.74,0-15.75s0-.18.1-.32c.07-.09.18-.14.39-.14h22.44,0Zm-.16,16.28v-11.69h-22.12v11.69h22.12Z" style="fill:#1d75bc;"/><path id="uuid-6c3299ad-50c3-4817-a424-fa56d0611ca3" d="m40.04,76.46v.59c0,.08-.03.15-.09.21s-.13.09-.21.09h-9.49c-.08,0-.15-.03-.21-.09s-.09-.13-.09-.21v-.59c0-.08.03-.15.09-.21s.13-.09.21-.09h9.49c.08,0,.15.03.21.09s.09.13.09.21Z" style="fill:#999;"/><path id="uuid-174ae3dc-f72f-4a53-a3c1-03059bd2c35d" d="m35.85,79.92v.59c0,.08-.03.15-.09.21s-.13.09-.21.09h-5.3c-.08,0-.15-.03-.21-.09s-.09-.13-.09-.21v-.59c0-.08.03-.15.09-.21s.13-.09.21-.09h5.3c.08,0,.15.03.21.09s.09.13.09.21Z" style="fill:#999;"/><path id="uuid-0014a65a-28ef-407e-8f88-3a19226f6f20" d="m35.85,71.27v.59c0,.08-.03.15-.09.21s-.13.09-.21.09h-5.3c-.08,0-.15-.03-.21-.09s-.09-.13-.09-.21v-.59c0-.08.03-.15.09-.21s.13-.09.21-.09h5.3c.08,0,.15.03.21.09s.09.13.09.21Z" style="fill:#fff;"/></g><g id="uuid-33f432a2-5dd5-4c8c-a993-61004c04109a"><rect id="uuid-a139d57c-345a-43bb-9828-2cc7752afc47" x="68.28" y="49.44" width="22.73" height="3.56" style="fill:#e2e2e2;"/><rect id="uuid-d3a41034-e5dc-4848-be24-43145b8c749c" x="68.28" y="56.39" width="22.73" height="3.56" style="fill:#e2e2e2;"/><path id="uuid-f8fc700c-c4f3-4c04-a6a4-188b659f0bbf" d="m90.91,40.13c.14,0,.25.05.35.14s.14.21.14.35v25.11c0,.14-.05.25-.14.35s-.21.14-.35.14h-22.45c-.14,0-.25-.05-.35-.14s-.14-.21-.14-.57v-24.91s0-.18.1-.32c.07-.09.18-.14.39-.14,0,0,22.44,0,22.44,0Zm-.16,25.44v-20.86h-22.12v20.86h22.12Z" style="fill:#1d75bc;"/><path id="uuid-085d5447-3bc2-4f5e-90c8-338e802661b4" d="m81.28,47.42v.59c0,.08-.03.15-.09.21s-.13.09-.21.09h-9.49c-.08,0-.15-.03-.21-.09s-.09-.13-.09-.21v-.59c0-.08.03-.15.09-.21s.13-.09.21-.09h9.49c.08,0,.15.03.21.09s.09.13.09.21Z" style="fill:#999;"/><path id="uuid-94ccee9b-77f7-4dfa-9e6f-098d9b663aff" d="m77.09,50.88v.59c0,.08-.03.15-.09.21s-.13.09-.21.09h-5.3c-.08,0-.15-.03-.21-.09s-.09-.13-.09-.21v-.59c0-.08.03-.15.09-.21s.13-.09.21-.09h5.3c.08,0,.15.03.21.09s.09.13.09.21Z" style="fill:#999;"/><path id="uuid-a16ecac8-74f0-4151-a3fe-82abb17a71a4" d="m79.71,54.33v.59c0,.08-.03.15-.09.21s-.13.09-.21.09h-7.92c-.08,0-.15-.03-.21-.09s-.09-.13-.09-.21v-.59c0-.08.03-.15.09-.21s.13-.09.21-.09h7.92c.08,0,.15.03.21.09s.09.13.09.21Z" style="fill:#999;"/><path id="uuid-1e7c4e7d-37c6-4a5d-92ab-4feb79364544" d="m78.67,57.79v.59c0,.08-.03.15-.09.21s-.13.09-.21.09h-6.87c-.08,0-.15-.03-.21-.09s-.09-.13-.09-.21v-.59c0-.08.03-.15.09-.21s.13-.09.21-.09h6.87c.08,0,.15.03.21.09s.09.13.09.21Z" style="fill:#999;"/><path id="uuid-f88dd822-c6fb-4aeb-8358-ff4012f2970b" d="m82.26,57.79v.59c0,.08-.03.15-.09.21s-.13.09-.21.09h-2.29c-.08,0-.15-.03-.21-.09s-.09-.13-.09-.21v-.59c0-.08.03-.15.09-.21s.13-.09.21-.09h2.29c.08,0,.15.03.21.09s.09.13.09.21Z" style="fill:#999;"/><path id="uuid-0ac2610d-60db-43e5-967d-0628d3553592" d="m81.94,61.25v.59c0,.08-.03.15-.09.21s-.13.09-.21.09h-10.15c-.08,0-.15-.03-.21-.09s-.09-.13-.09-.21v-.59c0-.08.03-.15.09-.21s.13-.09.21-.09h10.15c.08,0,.15.03.21.09s.09.13.09.21Z" style="fill:#999;"/><path id="uuid-11577857-8805-48cb-9ff1-dccc433b58a1" d="m77.03,42.14v.59c0,.08-.03.15-.09.21s-.13.09-.21.09h-5.3c-.08,0-.15-.03-.21-.09s-.09-.13-.09-.21v-.59c0-.08.03-.15.09-.21s.13-.09.21-.09h5.3c.08,0,.15.03.21.09s.09.13.09.21Z" style="fill:#fff;"/></g><g id="uuid-b2c64eab-07dd-4119-b397-27c9200bed9b"><rect id="uuid-39b0e571-2fb0-44c5-8987-5a0128c41b39" x="27.04" y="53.59" width="22.73" height="3.56" style="fill:#e2e2e2;"/><path id="uuid-9c744c05-747e-4f89-8233-6e7da4a976f5" d="m49.67,44.28c.14,0,.25.05.35.14s.14.21.14.35v15.95c0,.14-.05.25-.14.35s-.21.14-.35.14h-22.44c-.14,0-.25-.05-.35-.14s-.14-.21-.14-.57c0-15.77,0-15.74,0-15.75s0-.18.1-.32c.07-.09.18-.14.39-.14h22.44,0Zm-.16,16.28v-11.69h-22.12v11.69h22.12Z" style="fill:#1d75bc;"/><path id="uuid-1fdc8a72-d7cc-40ff-973d-ead979bc034b" d="m40.04,51.57v.59c0,.08-.03.15-.09.21s-.13.09-.21.09h-9.49c-.08,0-.15-.03-.21-.09s-.09-.13-.09-.21v-.59c0-.08.03-.15.09-.21s.13-.09.21-.09h9.49c.08,0,.15.03.21.09s.09.13.09.21Z" style="fill:#999;"/><path id="uuid-10d910dd-8bc7-4a6f-b93f-3a4aea5c897a" d="m35.85,55.03v.59c0,.08-.03.15-.09.21s-.13.09-.21.09h-5.3c-.08,0-.15-.03-.21-.09s-.09-.13-.09-.21v-.59c0-.08.03-.15.09-.21s.13-.09.21-.09h5.3c.08,0,.15.03.21.09s.09.13.09.21Z" style="fill:#999;"/><path id="uuid-9cda7d07-da88-4b7e-a395-794e73a969ab" d="m35.85,46.38v.59c0,.08-.03.15-.09.21s-.13.09-.21.09h-5.3c-.08,0-.15-.03-.21-.09s-.09-.13-.09-.21v-.59c0-.08.03-.15.09-.21s.13-.09.21-.09h5.3c.08,0,.15.03.21.09s.09.13.09.21Z" style="fill:#fff;"/></g><g id="uuid-2f28dfc7-171f-40b8-ab63-74919440ad53"><rect id="uuid-9319b94c-7a49-4ca7-96a2-b1b7d48f606f" x="105.84" y="23.25" width="22.73" height="3.56" style="fill:#e2e2e2;"/><rect id="uuid-c5b0adfc-0a28-4983-b8ca-e404f39fe646" x="105.84" y="30.2" width="22.73" height="3.56" style="fill:#e2e2e2;"/><path id="uuid-066d0c66-3748-4b60-bfdd-3a3bca9342f8" d="m128.48,13.95c.14,0,.25.05.35.14s.14.21.14.35v22.5c0,.14-.05.25-.14.35s-.21.14-.35.14h-22.45c-.14,0-.25-.05-.35-.14s-.14-.21-.14-.57V14.41s0-.18.1-.32c.07-.09.18-.14.39-.14h22.44Zm-.16,22.82v-18.24h-22.12v18.24h22.12Z" style="fill:#1d75bc;"/><path id="uuid-1e822dd1-2e7b-4949-a5a2-3c2716871a95" d="m118.85,21.23v.59c0,.08-.03.15-.09.21s-.13.09-.21.09h-9.49c-.08,0-.15-.03-.21-.09s-.09-.13-.09-.21v-.59c0-.08.03-.15.09-.21s.13-.09.21-.09h9.49c.08,0,.15.03.21.09s.09.13.09.21Z" style="fill:#999;"/><path id="uuid-6c87fa4d-040d-4686-9c1b-c70976848f95" d="m114.66,24.69v.59c0,.08-.03.15-.09.21s-.13.09-.21.09h-5.3c-.08,0-.15-.03-.21-.09s-.09-.13-.09-.21v-.59c0-.08.03-.15.09-.21s.13-.09.21-.09h5.3c.08,0,.15.03.21.09s.09.13.09.21Z" style="fill:#999;"/><path id="uuid-a9f4e2f5-65bf-422f-bb88-2a286cb81707" d="m117.28,28.14v.59c0,.08-.03.15-.09.21s-.13.09-.21.09h-7.92c-.08,0-.15-.03-.21-.09s-.09-.13-.09-.21v-.59c0-.08.03-.15.09-.21s.13-.09.21-.09h7.92c.08,0,.15.03.21.09s.09.13.09.21Z" style="fill:#999;"/><path id="uuid-49f32a40-5deb-40bc-80b8-879ccc4edfc5" d="m116.23,31.6v.59c0,.08-.03.15-.09.21s-.13.09-.21.09h-6.87c-.08,0-.15-.03-.21-.09s-.09-.13-.09-.21v-.59c0-.08.03-.15.09-.21s.13-.09.21-.09h6.87c.08,0,.15.03.21.09s.09.13.09.21Z" style="fill:#999;"/><path id="uuid-138de68c-709e-4ad6-b8b4-a6d72e7da150" d="m119.83,31.6v.59c0,.08-.03.15-.09.21s-.13.09-.21.09h-2.29c-.08,0-.15-.03-.21-.09s-.09-.13-.09-.21v-.59c0-.08.03-.15.09-.21s.13-.09.21-.09h2.29c.08,0,.15.03.21.09s.09.13.09.21Z" style="fill:#999;"/><path id="uuid-5e179bed-053c-4f30-a8e6-5445820d7453" d="m117.28,15.95v.59c0,.08-.03.15-.09.21s-.13.09-.21.09h-7.92c-.08,0-.15-.03-.21-.09s-.09-.13-.09-.21v-.59c0-.08.03-.15.09-.21s.13-.09.21-.09h7.92c.08,0,.15.03.21.09s.09.13.09.21Z" style="fill:#fff;"/></g><g id="uuid-badb6c4c-b64d-4524-806d-b606bb058bba"><rect id="uuid-98cced9c-ba40-4aea-85f0-ca6f3439b357" x="68.28" y="22.81" width="22.73" height="3.56" style="fill:#e2e2e2;"/><path id="uuid-dd8d4a59-d25c-4cd1-ab6e-456664d81970" d="m90.91,13.5c.14,0,.25.05.35.14s.14.21.14.35v17.26c0,.14-.05.25-.14.35s-.21.14-.35.14h-22.45c-.14,0-.25-.05-.35-.14s-.14-.21-.14-.57c0-22.29,0-17.05,0-17.06s0-.18.1-.32c.07-.09.18-.14.39-.14h22.44Zm-.16,17.58v-13h-22.12v13h22.12Z" style="fill:#1d75bc;"/><path id="uuid-0ea28b4e-4e52-4044-b376-789a4d51b3ae" d="m81.28,20.79v.59c0,.08-.03.15-.09.21s-.13.09-.21.09h-9.49c-.08,0-.15-.03-.21-.09s-.09-.13-.09-.21v-.59c0-.08.03-.15.09-.21s.13-.09.21-.09h9.49c.08,0,.15.03.21.09s.09.13.09.21Z" style="fill:#999;"/><path id="uuid-7b709112-bb58-4612-bf7c-94e6a0e4b873" d="m77.09,24.24v.59c0,.08-.03.15-.09.21s-.13.09-.21.09h-5.3c-.08,0-.15-.03-.21-.09s-.09-.13-.09-.21v-.59c0-.08.03-.15.09-.21s.13-.09.21-.09h5.3c.08,0,.15.03.21.09s.09.13.09.21Z" style="fill:#999;"/><path id="uuid-87898bac-d8c1-4ae6-b40d-9041c0b39475" d="m79.71,27.7v.59c0,.08-.03.15-.09.21s-.13.09-.21.09h-7.92c-.08,0-.15-.03-.21-.09s-.09-.13-.09-.21v-.59c0-.08.03-.15.09-.21s.13-.09.21-.09h7.92c.08,0,.15.03.21.09s.09.13.09.21Z" style="fill:#999;"/><path id="uuid-ea38f94b-6542-4f17-80db-04b579097ec2" d="m82.21,15.72v.59c0,.08-.03.15-.09.21s-.13.09-.21.09h-10.34c-.08,0-.15-.03-.21-.09s-.09-.13-.09-.21v-.59c0-.08.03-.15.09-.21s.13-.09.21-.09h10.34c.08,0,.15.03.21.09s.09.13.09.21Z" style="fill:#fff;"/></g><g id="uuid-33f48b48-ebc3-4961-9b2c-0d70032f50b7"><rect id="uuid-b19d3ff8-fdcd-4596-8b78-b16e7ff0e1ca" x="27.04" y="23.06" width="22.73" height="3.56" style="fill:#e2e2e2;"/><path id="uuid-b8149819-335f-4590-9bfb-ee55fff38c77" d="m49.67,13.76c.14,0,.25.05.35.14s.14.21.14.35v17.26c0,.14-.05.25-.14.35s-.21.14-.35.14h-22.44c-.14,0-.25-.05-.35-.14s-.14-.21-.14-.57c0-22.29,0-17.05,0-17.06s0-.18.1-.32c.07-.09.18-.14.39-.14h22.44,0Zm-.16,17.58v-13h-22.12v13h22.12Z" style="fill:#1d75bc;"/><path id="uuid-be8c9a05-29af-4f4c-b329-07bf9877dcda" d="m40.04,21.04v.59c0,.08-.03.15-.09.21s-.13.09-.21.09h-9.49c-.08,0-.15-.03-.21-.09s-.09-.13-.09-.21v-.59c0-.08.03-.15.09-.21s.13-.09.21-.09h9.49c.08,0,.15.03.21.09s.09.13.09.21Z" style="fill:#999;"/><path id="uuid-ff4b98fb-510f-4f5f-bd77-00485a798ff5" d="m35.85,24.5v.59c0,.08-.03.15-.09.21s-.13.09-.21.09h-5.3c-.08,0-.15-.03-.21-.09s-.09-.13-.09-.21v-.59c0-.08.03-.15.09-.21s.13-.09.21-.09h5.3c.08,0,.15.03.21.09s.09.13.09.21Z" style="fill:#999;"/><path id="uuid-8e74aeb7-7412-464d-a40c-0cfb5c113438" d="m38.47,27.96v.59c0,.08-.03.15-.09.21s-.13.09-.21.09h-7.92c-.08,0-.15-.03-.21-.09s-.09-.13-.09-.21v-.59c0-.08.03-.15.09-.21s.13-.09.21-.09h7.92c.08,0,.15.03.21.09s.09.13.09.21Z" style="fill:#999;"/><path id="uuid-992c55e7-cc2a-49c7-aa3a-5a0609131670" d="m40.97,15.97v.59c0,.08-.03.15-.09.21s-.13.09-.21.09h-10.34c-.08,0-.15-.03-.21-.09s-.09-.13-.09-.21v-.59c0-.08.03-.15.09-.21s.13-.09.21-.09h10.34c.08,0,.15.03.21.09s.09.13.09.21h0Z" style="fill:#fff;"/></g></g></svg>