<?xml version="1.0" encoding="UTF-8"?><svg id="uuid-bb6e1ce2-e642-4536-83e8-5670f2a94d13" xmlns="http://www.w3.org/2000/svg" width="150" height="100" viewBox="0 0 150 100"><rect x="0" width="150" height="100" rx="5" ry="5" style="fill:#f5f6f7;"/><line id="uuid-8d8258fe-f953-4c4b-b9d8-8ecba72e488f" x1="105.02" y1="38.24" x2="105.02" y2="60.95" style="fill:none; stroke:#999; stroke-miterlimit:4.22;"/><polyline id="uuid-e7067bd0-f495-4ebb-a331-236b4682fbea" points="56.45 74.03 80.16 74.03 80.16 67.44 93.6 67.44" style="fill:none; stroke:#999; stroke-miterlimit:4.22;"/><g id="uuid-4819f2b5-6ff3-42c1-a9b2-e21452fdb215"><rect id="uuid-58807e80-92f0-4ae6-94b5-c21ffb7e2013" x="93.74" y="70.26" width="22.73" height="3.56" style="fill:#e2e2e2;"/><path id="uuid-72edd6e9-2590-4ae5-94df-69f704f36a14" d="m116.37,60.96c.14,0,.25.05.35.14s.14.21.14.35v17.26c0,.14-.05.25-.14.35s-.21.14-.35.14h-22.45c-.14,0-.25-.05-.35-.14s-.14-.21-.14-.57c0-22.29,0-17.05,0-17.06s0-.18.1-.32c.07-.09.18-.14.39-.14h22.44Zm-.16,17.58v-13h-22.12v13h22.12Z" style="fill:#07b9ff;"/><path id="uuid-9ade7aae-3e4c-429a-a592-c3f23c194600" d="m106.75,68.24v.59c0,.08-.03.15-.09.21s-.13.09-.21.09h-9.49c-.08,0-.15-.03-.21-.09s-.09-.13-.09-.21v-.59c0-.08.03-.15.09-.21s.13-.09.21-.09h9.49c.08,0,.15.03.21.09s.09.13.09.21Z" style="fill:#999;"/><path id="uuid-70cad326-1ed0-4409-855b-2f812b406732" d="m102.56,71.7v.59c0,.08-.03.15-.09.21s-.13.09-.21.09h-5.3c-.08,0-.15-.03-.21-.09s-.09-.13-.09-.21v-.59c0-.08.03-.15.09-.21s.13-.09.21-.09h5.3c.08,0,.15.03.21.09s.09.13.09.21Z" style="fill:#999;"/><path id="uuid-a1168c7e-4abd-4d2b-9af2-12bd0d4f1373" d="m105.18,75.15v.59c0,.08-.03.15-.09.21s-.13.09-.21.09h-7.92c-.08,0-.15-.03-.21-.09s-.09-.13-.09-.21v-.59c0-.08.03-.15.09-.21s.13-.09.21-.09h7.92c.08,0,.15.03.21.09s.09.13.09.21Z" style="fill:#999;"/><path id="uuid-dd1dddbe-41ba-4644-9140-cf5149cf0b9b" d="m107.68,63.17v.59c0,.08-.03.15-.09.21s-.13.09-.21.09h-10.34c-.08,0-.15-.03-.21-.09s-.09-.13-.09-.21v-.59c0-.08.03-.15.09-.21s.13-.09.21-.09h10.34c.08,0,.15.03.21.09s.09.13.09.21Z" style="fill:#fff;"/></g><line x1="45.03" y1="43.38" x2="45.03" y2="32.48" style="fill:none; stroke:#999; stroke-miterlimit:4.22;"/><line x1="41.94" y1="32.53" x2="45.12" y2="35.71" style="fill:none; stroke:#999; stroke-linejoin:bevel;"/><line x1="44.94" y1="35.71" x2="48.12" y2="32.53" style="fill:none; stroke:#999; stroke-linejoin:bevel;"/><line x1="42.78" y1="37.75" x2="47.28" y2="37.75" style="fill:none; stroke:#999; stroke-linejoin:bevel;"/><line x1="44.85" y1="60.99" x2="44.85" y2="71.88" style="fill:none; stroke:#999; stroke-miterlimit:4.22;"/><line x1="47.94" y1="71.84" x2="44.76" y2="68.66" style="fill:none; stroke:#999; stroke-linejoin:bevel;"/><line x1="44.94" y1="68.66" x2="41.76" y2="71.84" style="fill:none; stroke:#999; stroke-linejoin:bevel;"/><line x1="47.1" y1="66.62" x2="42.6" y2="66.62" style="fill:none; stroke:#999; stroke-linejoin:bevel;"/><g id="uuid-e7b2076a-2d3a-4671-9c74-448d55487f6b"><rect id="uuid-17af36d9-94a2-453d-8dac-e5509f683608" x="33.58" y="80.81" width="22.73" height="3.56" style="fill:#e2e2e2;"/><path id="uuid-6253e602-5787-4918-8e77-8a8d6798e179" d="m56.21,71.51c.14,0,.25.05.35.14s.14.21.14.35v12.95c0,.14-.05.25-.14.35s-.21.14-.35.14h-22.44c-.14,0-.25-.05-.35-.14s-.14-.21-.14-.57c0-22.29,0-12.74,0-12.75s0-.18.1-.32c.07-.09.18-.14.39-.14h22.44,0Zm-.16,13.28v-8.69h-22.12v8.69h22.12Z" style="fill:#07b9ff;"/><path id="uuid-33d28b7d-73de-4d35-b88b-df8b4dba2901" d="m46.59,78.8v.59c0,.08-.03.15-.09.21s-.13.09-.21.09h-9.49c-.08,0-.15-.03-.21-.09s-.09-.13-.09-.21v-.59c0-.08.03-.15.09-.21s.13-.09.21-.09h9.49c.08,0,.15.03.21.09s.09.13.09.21Z" style="fill:#999;"/><path id="uuid-eb42c9bb-cad3-495f-9be3-240f55951e8e" d="m42.4,82.25v.59c0,.08-.03.15-.09.21s-.13.09-.21.09h-5.3c-.08,0-.15-.03-.21-.09s-.09-.13-.09-.21v-.59c0-.08.03-.15.09-.21s.13-.09.21-.09h5.3c.08,0,.15.03.21.09s.09.13.09.21Z" style="fill:#999;"/><path id="uuid-f3815d83-0465-4bab-ad20-b43a010e7675" d="m42.4,73.6v.59c0,.08-.03.15-.09.21s-.13.09-.21.09h-5.3c-.08,0-.15-.03-.21-.09s-.09-.13-.09-.21v-.59c0-.08.03-.15.09-.21s.13-.09.21-.09h5.3c.08,0,.15.03.21.09s.09.13.09.21Z" style="fill:#fff;"/></g><g id="uuid-ca6eacdc-e39d-4006-9efc-4de629b8b6cb"><rect id="uuid-131fd4d0-1e23-4623-af61-c4aaa5f36901" x="33.58" y="23.93" width="22.73" height="3.56" style="fill:#e2e2e2;"/><path id="uuid-920dd75d-b40d-42ac-bbe2-65be6820b2c0" d="m56.21,14.63c.14,0,.25.05.35.14s.14.21.14.35v17.26c0,.14-.05.25-.14.35s-.21.14-.35.14h-22.44c-.14,0-.25-.05-.35-.14s-.14-.21-.14-.57c0-22.29,0-17.05,0-17.06s0-.18.1-.32c.07-.09.18-.14.39-.14h22.44,0Zm-.16,17.58v-13h-22.12v13h22.12Z" style="fill:#07b9ff;"/><path id="uuid-c24151fd-a495-429b-9d93-ab3801a00346" d="m46.59,21.91v.59c0,.08-.03.15-.09.21s-.13.09-.21.09h-9.49c-.08,0-.15-.03-.21-.09s-.09-.13-.09-.21v-.59c0-.08.03-.15.09-.21s.13-.09.21-.09h9.49c.08,0,.15.03.21.09s.09.13.09.21Z" style="fill:#999;"/><path id="uuid-d8e648a0-a10b-4978-ac19-6b72fa7c4cce" d="m42.4,25.37v.59c0,.08-.03.15-.09.21s-.13.09-.21.09h-5.3c-.08,0-.15-.03-.21-.09s-.09-.13-.09-.21v-.59c0-.08.03-.15.09-.21s.13-.09.21-.09h5.3c.08,0,.15.03.21.09s.09.13.09.21Z" style="fill:#999;"/><path id="uuid-6bb3672b-fe6e-4420-9e38-69e9678d1c4a" d="m45.02,28.83v.59c0,.08-.03.15-.09.21s-.13.09-.21.09h-7.92c-.08,0-.15-.03-.21-.09s-.09-.13-.09-.21v-.59c0-.08.03-.15.09-.21s.13-.09.21-.09h7.92c.08,0,.15.03.21.09s.09.13.09.21Z" style="fill:#999;"/><path id="uuid-0fadd818-94cc-4d96-8eb9-c7b422c563b7" d="m47.51,16.84v.59c0,.08-.03.15-.09.21s-.13.09-.21.09h-10.34c-.08,0-.15-.03-.21-.09s-.09-.13-.09-.21v-.59c0-.08.03-.15.09-.21s.13-.09.21-.09h10.34c.08,0,.15.03.21.09s.09.13.09.21h0Z" style="fill:#fff;"/></g><polyline id="uuid-f271f790-57b2-41cd-acd1-207c6486a144" points="56.3 49.49 73.35 49.49 73.35 31.48 93.65 31.48" style="fill:none; stroke:#999; stroke-miterlimit:4.22;"/><line x1="90.32" y1="65" x2="90.32" y2="69.5" style="fill:none; stroke:#999; stroke-linejoin:bevel;"/><line x1="88.32" y1="65" x2="88.32" y2="69.5" style="fill:none; stroke:#999; stroke-linejoin:bevel;"/><line x1="93.62" y1="28.42" x2="90.44" y2="31.6" style="fill:none; stroke:#999; stroke-linejoin:bevel;"/><line x1="90.44" y1="31.42" x2="93.62" y2="34.6" style="fill:none; stroke:#999; stroke-linejoin:bevel;"/><line x1="88.4" y1="29.26" x2="88.4" y2="33.76" style="fill:none; stroke:#999; stroke-linejoin:bevel;"/><g id="uuid-ed5c9568-93a3-4aa2-8318-5dab027e6489"><rect id="uuid-52175194-bcca-43ba-8099-2710af390c66" x="93.68" y="33.73" width="22.73" height="3.56" style="fill:#e2e2e2;"/><path id="uuid-c86ca8ed-d992-4cd3-a773-f65c6475ee1c" d="m116.31,24.43c.14,0,.25.05.35.14s.14.21.14.35v12.95c0,.14-.05.25-.14.35s-.21.14-.35.14h-22.44c-.14,0-.25-.05-.35-.14s-.14-.21-.14-.57c0-22.29,0-12.74,0-12.75s0-.18.1-.32c.07-.09.18-.14.39-.14h22.44,0Zm-.16,13.28v-8.69h-22.12v8.69h22.12Z" style="fill:#07b9ff;"/><path id="uuid-72475234-e9f2-460c-8a0d-2a7a3bafd124" d="m106.69,31.71v.59c0,.08-.03.15-.09.21s-.13.09-.21.09h-9.49c-.08,0-.15-.03-.21-.09s-.09-.13-.09-.21v-.59c0-.08.03-.15.09-.21s.13-.09.21-.09h9.49c.08,0,.15.03.21.09s.09.13.09.21Z" style="fill:#999;"/><path id="uuid-88e37e2c-f6f6-4592-9615-e08e011aaa48" d="m102.49,35.17v.59c0,.08-.03.15-.09.21s-.13.09-.21.09h-5.3c-.08,0-.15-.03-.21-.09s-.09-.13-.09-.21v-.59c0-.08.03-.15.09-.21s.13-.09.21-.09h5.3c.08,0,.15.03.21.09s.09.13.09.21Z" style="fill:#999;"/><path id="uuid-b77245dd-5b1f-4cda-ba03-9be5ca10f024" d="m102.49,26.52v.59c0,.08-.03.15-.09.21s-.13.09-.21.09h-5.3c-.08,0-.15-.03-.21-.09s-.09-.13-.09-.21v-.59c0-.08.03-.15.09-.21s.13-.09.21-.09h5.3c.08,0,.15.03.21.09s.09.13.09.21Z" style="fill:#fff;"/></g><line x1="56.31" y1="52.55" x2="59.49" y2="49.37" style="fill:none; stroke:#999; stroke-linejoin:bevel;"/><line x1="59.49" y1="49.56" x2="56.31" y2="46.38" style="fill:none; stroke:#999; stroke-linejoin:bevel;"/><line x1="61.54" y1="51.71" x2="61.54" y2="47.22" style="fill:none; stroke:#999; stroke-linejoin:bevel;"/><g id="uuid-c5ae8f38-9814-419d-bd52-9bdd574cc09a"><rect id="uuid-b622ad3b-4974-478a-95e9-1d66105b61ab" x="33.44" y="52.26" width="22.73" height="3.56" style="fill:#e2e2e2;"/><path id="uuid-189b2e8f-4dbf-4c01-8c43-86857c71eea8" d="m56.07,42.95c.14,0,.25.05.35.14s.14.21.14.35v17.26c0,.14-.05.25-.14.35s-.21.14-.35.14h-22.44c-.14,0-.25-.05-.35-.14s-.14-.21-.14-.57c0-22.29,0-17.05,0-17.06s0-.18.1-.32c.07-.09.18-.14.39-.14h22.44,0Zm-.16,17.58v-13h-22.12v13h22.12Z" style="fill:#07b9ff;"/><path id="uuid-e283b067-2b3f-42fd-85b4-ef8ed5b14652" d="m46.45,50.24v.59c0,.08-.03.15-.09.21s-.13.09-.21.09h-9.49c-.08,0-.15-.03-.21-.09s-.09-.13-.09-.21v-.59c0-.08.03-.15.09-.21s.13-.09.21-.09h9.49c.08,0,.15.03.21.09s.09.13.09.21Z" style="fill:#999;"/><path id="uuid-df1bef7b-2f9a-4bdc-a4eb-eb139b90f0c9" d="m42.25,53.7v.59c0,.08-.03.15-.09.21s-.13.09-.21.09h-5.3c-.08,0-.15-.03-.21-.09s-.09-.13-.09-.21v-.59c0-.08.03-.15.09-.21s.13-.09.21-.09h5.3c.08,0,.15.03.21.09s.09.13.09.21Z" style="fill:#999;"/><path id="uuid-522947f1-54ff-40f9-809a-e452d9d6adef" d="m44.87,57.15v.59c0,.08-.03.15-.09.21s-.13.09-.21.09h-7.92c-.08,0-.15-.03-.21-.09s-.09-.13-.09-.21v-.59c0-.08.03-.15.09-.21s.13-.09.21-.09h7.92c.08,0,.15.03.21.09s.09.13.09.21Z" style="fill:#999;"/><path id="uuid-ee1ffd24-f053-48cc-93fe-25b781851699" d="m47.37,45.17v.59c0,.08-.03.15-.09.21s-.13.09-.21.09h-10.34c-.08,0-.15-.03-.21-.09s-.09-.13-.09-.21v-.59c0-.08.03-.15.09-.21s.13-.09.21-.09h10.34c.08,0,.15.03.21.09s.09.13.09.21h0Z" style="fill:#fff;"/></g></svg>