<?xml version="1.0" encoding="UTF-8"?><svg id="uuid-5f8d47af-ddba-4fde-9a7a-3b64f5fd5778" xmlns="http://www.w3.org/2000/svg" width="150" height="100" viewBox="0 0 150 100"><rect x="0" width="150" height="100" rx="5" ry="5" style="fill:#f5f6f7;"/><circle cx="42.31" cy="50" r="28.64" style="fill:#fff; stroke:#ccc; stroke-miterlimit:10; stroke-width:2.47px;"/><circle cx="107.69" cy="50" r="28.64" style="fill:#fff; stroke:#ccc; stroke-miterlimit:10; stroke-width:2.47px;"/><path d="m51.99,33.29l2.4-4.16c.39-.67.15-1.52-.54-1.88-2.92-1.53-6.16-2.53-9.6-2.86-.79-.08-1.47.56-1.47,1.35v4.83c0,.68.51,1.26,1.19,1.34,2.22.27,4.31.93,6.22,1.9.65.33,1.43.11,1.8-.52Z" style="fill:#f63;"/><path d="m59.07,40.51l4.17-2.41c.67-.39.88-1.26.46-1.91-1.81-2.77-4.12-5.17-6.81-7.09-.65-.46-1.56-.26-1.95.43l-2.41,4.18c-.34.6-.18,1.35.37,1.76,1.71,1.27,3.19,2.83,4.38,4.6.4.59,1.18.79,1.8.43Z" style="fill:#f63;"/><path d="m60.39,52.09c-.18,2.15-.71,4.19-1.55,6.07-.28.64-.05,1.38.55,1.73l4.18,2.41c.68.39,1.56.13,1.9-.59,1.36-2.9,2.21-6.08,2.43-9.44.05-.78-.57-1.44-1.35-1.44h-4.82c-.71,0-1.29.55-1.35,1.25Z" style="fill:#e53333;"/><path d="m61.72,50.17h4.82c.78,0,1.41-.66,1.35-1.44-.23-3.35-1.08-6.54-2.45-9.43-.34-.71-1.22-.98-1.9-.58l-4.18,2.41c-.6.35-.84,1.1-.55,1.73.84,1.88,1.38,3.92,1.57,6.06.06.7.64,1.25,1.35,1.25Z" style="fill:#e53333;"/><circle cx="42.5" cy="49.97" r="3.04" style="fill:#ccc;"/><path d="m52.06,39.06l-13.62,13.05c-.4.37-.41,1-.02,1.38l.56.56c.38.38,1.01.37,1.38-.02l13.06-13.6c.77-.9-.45-2.12-1.36-1.36Z" style="fill:#444;"/><path d="m32.92,33.25l-2.4-4.16c-.39-.67-.15-1.52.54-1.88,2.92-1.53,6.16-2.53,9.6-2.86.79-.08,1.47.56,1.47,1.35v4.83c0,.68-.51,1.26-1.19,1.34-2.22.27-4.31.93-6.22,1.9-.65.33-1.43.11-1.8-.52Z" style="fill:#ffb703;"/><path d="m25.84,40.47l-4.17-2.41c-.67-.39-.88-1.26-.46-1.91,1.81-2.77,4.12-5.17,6.81-7.09.65-.46,1.56-.26,1.95.43l2.41,4.18c.34.6.18,1.35-.37,1.76-1.71,1.27-3.19,2.83-4.38,4.6-.4.59-1.18.79-1.8.43Z" style="fill:#ffb703;"/><path d="m24.52,52.06c.18,2.15.71,4.19,1.55,6.07.28.64.05,1.38-.55,1.73l-4.18,2.41c-.68.39-1.56.13-1.9-.59-1.36-2.9-2.21-6.08-2.43-9.44-.05-.78.57-1.44,1.35-1.44h4.82c.71,0,1.29.55,1.35,1.25Z" style="fill:#39b44a;"/><path d="m23.18,50.13h-4.82c-.78,0-1.41-.66-1.35-1.44.23-3.35,1.08-6.54,2.45-9.43.34-.71,1.22-.98,1.9-.58l4.18,2.41c.6.35.84,1.1.55,1.73-.84,1.88-1.38,3.92-1.57,6.06-.06.7-.64,1.25-1.35,1.25Z" style="fill:#39b44a;"/><path d="m117.37,33.29l2.4-4.16c.39-.67.15-1.52-.54-1.88-2.92-1.53-6.16-2.53-9.6-2.86-.79-.08-1.47.56-1.47,1.35v4.83c0,.68.51,1.26,1.19,1.34,2.22.27,4.31.93,6.22,1.9.65.33,1.43.11,1.8-.52Z" style="fill:#f63;"/><path d="m124.45,40.51l4.17-2.41c.67-.39.88-1.26.46-1.91-1.81-2.77-4.12-5.17-6.81-7.09-.65-.46-1.56-.26-1.95.43l-2.41,4.18c-.34.6-.18,1.35.37,1.76,1.71,1.27,3.19,2.83,4.38,4.6.4.59,1.18.79,1.8.43Z" style="fill:#f63;"/><path d="m125.77,52.09c-.18,2.15-.71,4.19-1.55,6.07-.28.64-.05,1.38.55,1.73l4.18,2.41c.68.39,1.56.13,1.9-.59,1.36-2.9,2.21-6.08,2.43-9.44.05-.78-.57-1.44-1.35-1.44h-4.82c-.71,0-1.29.55-1.35,1.25Z" style="fill:#e53333;"/><path d="m127.11,50.17h4.82c.78,0,1.41-.66,1.35-1.44-.23-3.35-1.08-6.54-2.45-9.43-.34-.71-1.22-.98-1.9-.58l-4.18,2.41c-.6.35-.84,1.1-.55,1.73.84,1.88,1.38,3.92,1.57,6.06.06.7.64,1.25,1.35,1.25Z" style="fill:#e53333;"/><circle cx="107.88" cy="49.97" r="3.04" style="fill:#ccc;"/><path d="m103.27,36.18l4.49,18.31c.12.53.66.85,1.19.71l.76-.2c.53-.14.83-.69.67-1.21l-5.25-18.11c-.4-1.12-2.07-.67-1.86.49Z" style="fill:#444;"/><path d="m98.3,33.25l-2.4-4.16c-.39-.67-.15-1.52.54-1.88,2.92-1.53,6.16-2.53,9.6-2.86.79-.08,1.47.56,1.47,1.35v4.83c0,.68-.51,1.26-1.19,1.34-2.22.27-4.31.93-6.22,1.9-.65.33-1.43.11-1.8-.52Z" style="fill:#ffb703;"/><path d="m91.22,40.47l-4.17-2.41c-.67-.39-.88-1.26-.46-1.91,1.81-2.77,4.12-5.17,6.81-7.09.65-.46,1.56-.26,1.95.43l2.41,4.18c.34.6.18,1.35-.37,1.76-1.71,1.27-3.19,2.83-4.38,4.6-.4.59-1.18.79-1.8.43Z" style="fill:#ffb703;"/><path d="m89.9,52.06c.18,2.15.71,4.19,1.55,6.07.28.64.05,1.38-.55,1.73l-4.18,2.41c-.68.39-1.56.13-1.9-.59-1.36-2.9-2.21-6.08-2.43-9.44-.05-.78.57-1.44,1.35-1.44h4.82c.71,0,1.29.55,1.35,1.25Z" style="fill:#39b44a;"/><path d="m88.56,50.13h-4.82c-.78,0-1.41-.66-1.35-1.44.23-3.35,1.08-6.54,2.45-9.43.34-.71,1.22-.98,1.9-.58l4.18,2.41c.6.35.84,1.1.55,1.73-.84,1.88-1.38,3.92-1.57,6.06-.06.7-.64,1.25-1.35,1.25Z" style="fill:#39b44a;"/></svg>