<?xml version="1.0" encoding="UTF-8"?><svg id="uuid-da95c14c-e28d-4d4b-a8ea-da965663028a" xmlns="http://www.w3.org/2000/svg" width="150" height="100" viewBox="0 0 150 100"><rect x="0" width="150" height="100" rx="5" ry="5" style="fill:#f5f6f7;"/><line x1="113.2" y1="30.46" x2="113.2" y2="85.88" style="fill:none; stroke:#999; stroke-miterlimit:10; stroke-width:.5px;"/><path d="m98.52,14.12h29.89c.87,0,1.58.73,1.58,1.63v13.55c0,.9-.71,1.63-1.58,1.63h-29.89c-.87,0-1.58-.73-1.58-1.63v-13.55c0-.9.71-1.63,1.58-1.63Z" style="fill:#07b9ff;"/><line x1="74.7" y1="30.46" x2="74.7" y2="85.88" style="fill:none; stroke:#999; stroke-miterlimit:10; stroke-width:.5px;"/><line x1="36.28" y1="30.46" x2="36.28" y2="85.88" style="fill:none; stroke:#999; stroke-miterlimit:10; stroke-width:.5px;"/><rect x="109.74" y="52.7" width="7.11" height="11.39" rx="2" ry="2" style="fill:#ffb703;"/><path d="m60.01,14.12h29.89c.87,0,1.58.73,1.58,1.63v13.55c0,.9-.71,1.63-1.58,1.63h-29.89c-.87,0-1.58-.73-1.58-1.63v-13.55c0-.9.71-1.63,1.58-1.63Z" style="fill:#8bc53f;"/><rect x="71.24" y="40.93" width="7.11" height="16.39" rx="1.5" ry="1.5" style="fill:#ffb703;"/><rect x="71.24" y="60.78" width="7.11" height="16.39" rx="1.5" ry="1.5" style="fill:#ffb703;"/><path d="m21.6,14.12h29.89c.87,0,1.58.73,1.58,1.63v13.55c0,.9-.71,1.63-1.58,1.63h-29.89c-.87,0-1.58-.73-1.58-1.63v-13.55c0-.9.71-1.63,1.58-1.63Z" style="fill:#1d75bc;"/><rect x="32.82" y="36.86" width="7.11" height="43.09" rx="1.5" ry="1.5" style="fill:#ffb703;"/><path d="m39.84,41.25h28.07" style="fill:none; stroke:#ccc; stroke-width:1.5px;"/><polygon points="67.09 39.22 71.28 41.3 67.09 43.38 67.09 39.22" style="fill:#ccc;"/><path d="m78.32,53.01h28.07" style="fill:none; stroke:#ccc; stroke-width:1.5px;"/><polygon points="105.57 50.98 109.76 53.06 105.57 55.14 105.57 50.98" style="fill:#ccc;"/><path d="m109.84,64.4h-28.07" style="fill:none; stroke:#ccc; stroke-width:1.5px;"/><polygon points="82.59 66.43 78.4 64.35 82.59 62.27 82.59 66.43" style="fill:#ccc;"/><path d="m71.13,76.34h-28.07" style="fill:none; stroke:#ccc; stroke-width:1.5px;"/><polygon points="43.88 78.37 39.69 76.29 43.88 74.21 43.88 78.37" style="fill:#ccc;"/></svg>