<?xml version="1.0" encoding="UTF-8"?><svg id="uuid-172f1ac2-389b-4a30-b382-d5c8deb0c63d" xmlns="http://www.w3.org/2000/svg" width="150" height="100" viewBox="0 0 150 100"><rect x="0" width="150" height="100" rx="5" ry="5" style="fill:#f5f6f7;"/><rect x="13.08" y="11.4" width="123.84" height="77.21" rx="5.57" ry="5.57" style="fill:#fff;"/><rect x="23.14" y="17.34" width="15.41" height="11.44" rx="1.68" ry="1.68" style="fill:#d8df21;"/><rect x="40.6" y="17.34" width="15.41" height="11.44" rx="1.68" ry="1.68" style="fill:#2483ff;"/><rect x="58.07" y="17.34" width="15.41" height="11.44" rx="1.68" ry="1.68" style="fill:#07b9ff;"/><rect x="75.53" y="17.34" width="15.41" height="11.44" rx="1.68" ry="1.68" style="fill:#8bc53f;"/><rect x="93" y="17.34" width="15.41" height="11.44" rx="1.68" ry="1.68" style="fill:#d8df21;"/><rect x="110.46" y="17.34" width="15.41" height="11.44" rx="1.68" ry="1.68" style="fill:#ffb703;"/><rect x="23.14" y="30.83" width="15.41" height="11.44" rx="1.68" ry="1.68" style="fill:#f63;"/><rect x="40.6" y="30.83" width="15.41" height="11.44" rx="1.68" ry="1.68" style="fill:#07b9ff;"/><rect x="58.07" y="30.83" width="15.41" height="11.44" rx="1.68" ry="1.68" style="fill:#2483ff;"/><rect x="75.53" y="30.83" width="15.41" height="11.44" rx="1.68" ry="1.68" style="fill:#ffb703;"/><rect x="93" y="30.83" width="15.41" height="11.44" rx="1.68" ry="1.68" style="fill:#f63;"/><rect x="110.46" y="30.83" width="15.41" height="11.44" rx="1.68" ry="1.68" style="fill:#8bc53f;"/><rect x="23.14" y="44.32" width="15.41" height="11.44" rx="1.68" ry="1.68" style="fill:#ffb703;"/><rect x="40.6" y="44.32" width="15.41" height="11.44" rx="1.68" ry="1.68" style="fill:#d8df21;"/><rect x="58.07" y="44.32" width="15.41" height="11.44" rx="1.68" ry="1.68" style="fill:#f63;"/><rect x="75.53" y="44.32" width="15.41" height="11.44" rx="1.68" ry="1.68" style="fill:#07b9ff;"/><rect x="93" y="44.32" width="15.41" height="11.44" rx="1.68" ry="1.68" style="fill:#8bc53f;"/><rect x="110.46" y="44.32" width="15.41" height="11.44" rx="1.68" ry="1.68" style="fill:#d8df21;"/><rect x="23.14" y="57.81" width="15.41" height="11.44" rx="1.68" ry="1.68" style="fill:#d8df21;"/><rect x="40.6" y="57.81" width="15.41" height="11.44" rx="1.68" ry="1.68" style="fill:#ffb703;"/><rect x="58.07" y="57.81" width="15.41" height="11.44" rx="1.68" ry="1.68" style="fill:#d8df21;"/><rect x="75.53" y="57.81" width="15.41" height="11.44" rx="1.68" ry="1.68" style="fill:#2483ff;"/><rect x="93" y="57.81" width="15.41" height="11.44" rx="1.68" ry="1.68" style="fill:#07b9ff;"/><rect x="110.46" y="57.81" width="15.41" height="11.44" rx="1.68" ry="1.68" style="fill:#f63;"/><rect x="23.14" y="71.3" width="15.41" height="11.44" rx="1.68" ry="1.68" style="fill:#8bc53f;"/><rect x="40.6" y="71.3" width="15.41" height="11.44" rx="1.68" ry="1.68" style="fill:#f63;"/><rect x="58.07" y="71.3" width="15.41" height="11.44" rx="1.68" ry="1.68" style="fill:#ffb703;"/><rect x="75.53" y="71.3" width="15.41" height="11.44" rx="1.68" ry="1.68" style="fill:#d8df21;"/><rect x="93" y="71.3" width="15.41" height="11.44" rx="1.68" ry="1.68" style="fill:#2483ff;"/><rect x="110.46" y="71.3" width="15.41" height="11.44" rx="1.68" ry="1.68" style="fill:#07b9ff;"/></svg>