<?xml version="1.0" encoding="UTF-8"?><svg id="uuid-574ff1ba-d904-455f-95b9-9a1776ff2e3a" xmlns="http://www.w3.org/2000/svg" width="150" height="100" xmlns:xlink="http://www.w3.org/1999/xlink" viewBox="0 0 150 100"><defs><linearGradient id="uuid-f5041254-7e92-4751-8a70-efc7046ca2f5" x1="-168" y1="128.54" x2="-168" y2="133.36" gradientTransform="translate(346.25 229.01) scale(1.6 -1.6)" gradientUnits="userSpaceOnUse"><stop offset=".2" stop-color="#005ba1"/><stop offset="1" stop-color="#0078d4"/></linearGradient><linearGradient id="uuid-48190607-430d-4f96-9730-efc3d8341882" x1="-168" y1="121.97" x2="-168" y2="128.62" gradientTransform="translate(346.25 229.01) scale(1.6 -1.6)" gradientUnits="userSpaceOnUse"><stop offset="0" stop-color="#198ab3"/><stop offset=".17" stop-color="#32bedd"/><stop offset=".5" stop-color="#50e6ff"/><stop offset=".5" stop-color="#4fe4fd"/><stop offset=".5" stop-color="#4bddf8"/><stop offset=".5" stop-color="#44d2ee"/><stop offset=".5" stop-color="#3ac1e0"/><stop offset=".5" stop-color="#2dabce"/><stop offset=".5" stop-color="#1d90b8"/><stop offset=".5" stop-color="#198ab3"/><stop offset=".66" stop-color="#32bedd"/><stop offset=".97" stop-color="#50e6ff"/></linearGradient><linearGradient id="uuid-ed06d1c7-48bc-436b-94d0-300546c12d63" x1="-160.24" y1="132.52" x2="-160.59" y2="118.58" gradientTransform="translate(290.51 229.4) scale(1.6 -1.6)" gradientUnits="userSpaceOnUse"><stop offset="0" stop-color="#32d4f5"/><stop offset=".23" stop-color="#31d0f1"/><stop offset=".46" stop-color="#2cc3e6"/><stop offset=".7" stop-color="#25afd4"/><stop offset=".94" stop-color="#1c92ba"/><stop offset="1" stop-color="#198ab3"/></linearGradient><linearGradient id="uuid-f973e89e-f73a-411d-ade9-5de1e0bd2492" x1="-179.9" y1="124.25" x2="-168.42" y2="124.25" gradientTransform="translate(397.87 228.99) scale(1.6 -1.6)" gradientUnits="userSpaceOnUse"><stop offset="0" stop-color="#005ba1"/><stop offset=".07" stop-color="#0060a9"/><stop offset=".36" stop-color="#0071c8"/><stop offset=".52" stop-color="#0078d4"/><stop offset=".64" stop-color="#0074cd"/><stop offset=".82" stop-color="#006abb"/><stop offset="1" stop-color="#005ba1"/></linearGradient><radialGradient id="uuid-2ef30a5e-3402-4017-bf7a-2ece29823108" cx="-183.2" cy="134.46" fx="-183.2" fy="134.46" r="6.33" gradientTransform="translate(412.85 245.9) scale(1.6 -1.6)" gradientUnits="userSpaceOnUse"><stop offset="0" stop-color="#f2f2f2"/><stop offset=".58" stop-color="#eee"/><stop offset="1" stop-color="#e6e6e6"/></radialGradient><radialGradient id="uuid-796b033c-2dac-4011-857f-03c7939a77bb" cx="-178.17" cy="145.05" fx="-178.17" fy="145.05" r="5.33" gradientTransform="translate(373.24 310.58) scale(1.66 -1.64)" gradientUnits="userSpaceOnUse"><stop offset=".18" stop-color="#5ea0ef"/><stop offset="1" stop-color="#0078d4"/></radialGradient><clipPath id="uuid-430a7737-4e93-4b9b-86f4-68ad59e1a6fa"><path d="m86.53,70.2c.83,3.46-.51,7.08-3.39,9.17s-6.74,2.24-9.77.37c-3.03-1.86-4.64-5.37-4.08-8.88s3.18-6.34,6.64-7.17c4.73-1.13,9.47,1.79,10.6,6.51Z" style="fill:none;"/></clipPath></defs><rect x="0" width="150" height="100" rx="5" ry="5" style="fill:#f5f6f7;"/><path d="m77.35,64.41v-19.46" style="fill:none; stroke:#ccc; stroke-width:1.5px;"/><path d="m44.01,29.02h18.57" style="fill:none; stroke:#ccc; stroke-width:1.5px;"/><path d="m111.17,29.02h-18.57" style="fill:none; stroke:#ccc; stroke-width:1.5px;"/><path d="m77.45,15.64l-11.25,6.44v12.86l11.25,6.51,11.25-6.44v-12.9l-11.25-6.47Zm9.17,18.02l-9.17,5.3-9.17-5.25v-10.36l9.17-5.3,9.17,5.32v10.29Z" style="fill:#0078d4;"/><path d="m77.45,15.64l-11.25,6.44,2.08,1.28,9.17-5.3,9.17,5.3,2.08-1.28-11.25-6.44Z" style="fill:url(#uuid-f5041254-7e92-4751-8a70-efc7046ca2f5);"/><path d="m82.81,30.65c-.11-.18-.27-.32-.46-.41-1.18-2.59-3.6-4.39-6.42-4.8l9.28-5.37-2.16-1.24-10.57,6.11c-.42.24-.63.74-.5,1.21s.55.8,1.04.8c.04,0,.09-.02.13-.03l.18.75c2.77-.65,5.64.67,6.93,3.21l-10.53,6.09,2.15,1.24,10.54-6.09c.14-.08.26-.2.35-.34l.11-.03s-.03-.08-.04-.12c.15-.31.15-.68-.03-.98Z" style="fill:#50e6ff;"/><path d="m81.88,28.56c-1.46,0-2.65,1.19-2.65,2.65s1.19,2.65,2.65,2.65,2.65-1.19,2.65-2.65-1.19-2.65-2.65-2.65Zm-8.86-5.37c-1.46,0-2.65,1.19-2.65,2.65s1.19,2.65,2.65,2.65,2.65-1.19,2.65-2.65-1.19-2.65-2.65-2.65Z" style="fill:url(#uuid-48190607-430d-4f96-9730-efc3d8341882);"/><path d="m45.39,21.14h-10.62c-.11,0-.23-.03-.32-.1l-3.04-2.02c-.1-.06-.2-.09-.32-.09h-8.93c-.31,0-.57.25-.57.56v18.78c0,.31.26.56.57.56h23.22c.31,0,.57-.25.57-.56v-16.56c0-.32-.26-.57-.57-.57Z" style="fill:#005ba1;"/><rect x="23.82" y="20.03" width="5.53" height="1.1" rx=".23" ry=".23" style="fill:#fff;"/><rect x="23.82" y="20.03" width="1.1" height="1.1" rx=".16" ry=".16" style="fill:#1ac3f2;"/><path d="m45.39,21.12h-11.61c-.15,0-.3.06-.4.17l-1.94,1.86c-.11.1-.25.16-.4.16h-8.87c-.15,0-.3.06-.41.17s-.17.25-.17.41v14.33c0,.31.26.56.57.56h23.22c.31,0,.57-.25.57-.56v-16.5c0-.16-.05-.31-.16-.42s-.26-.18-.42-.18Z" style="fill:url(#uuid-ed06d1c7-48bc-436b-94d0-300546c12d63);"/><path d="m35.47,24.15s-.08-.01-.11,0-.13,0-.19.1l-4.53,6.58c-.04.07-.04.16,0,.23.04.08.12.13.22.14h2.68l-1.19,3.99s-.03.1,0,.15c.02.05.06.09.11.11.03.01.07.01.1,0,.09,0,.13,0,.19-.1l4.67-6.68v-.14c0-.13-.11-.23-.24-.23h-2.87l1.16-3.91c.06-.06.06-.16.01-.23Z" style="fill:#fff;"/><path d="m119.21,22.98c-5.07,0-9.19-1.43-9.19-3.33v17.72c0,1.82,4.04,3.3,9.06,3.33h.13c5.07,0,9.19-1.43,9.19-3.33v-17.72c0,1.85-4.11,3.33-9.19,3.33Z" style="fill:url(#uuid-f973e89e-f73a-411d-ade9-5de1e0bd2492);"/><path d="m128.4,19.66c0,1.85-4.11,3.33-9.19,3.33s-9.19-1.43-9.19-3.33,4.11-3.33,9.19-3.33,9.19,1.43,9.19,3.33" style="fill:#e8e8e8;"/><path d="m126.27,19.39c0,1.18-3.17,2.12-7.05,2.12s-7.05-.95-7.05-2.12,3.17-2.11,7.05-2.11,7.05.95,7.05,2.11" style="fill:#50e6ff;"/><path d="m119.21,19.92c-1.89-.05-3.78.23-5.58.82,1.8.58,3.69.84,5.58.77,1.89.06,3.78-.23,5.58-.83-1.8-.56-3.69-.82-5.58-.76Z" style="fill:#198ab3;"/><path d="m124.81,31.96v-4.87h-1.29v5.92h3.53v-1.05h-2.24Zm-10.24-2.39c-.27-.11-.51-.26-.73-.44-.12-.12-.18-.29-.17-.46,0-.17.07-.33.22-.43.18-.12.39-.18.6-.17.51-.02,1.01.12,1.43.42v-1.23c-.46-.17-.95-.25-1.43-.23-.56-.03-1.12.14-1.56.49-.39.3-.62.78-.6,1.28,0,.73.46,1.3,1.43,1.73.32.13.62.31.89.52.14.11.21.28.22.46,0,.18-.09.34-.23.44-.2.11-.42.17-.65.16-.58,0-1.13-.22-1.56-.6v1.33c.47.24,1,.36,1.53.34.6.04,1.2-.13,1.69-.47.35-.34.53-.82.47-1.3,0-.37-.12-.72-.36-1-.33-.35-.74-.63-1.19-.82Zm7.51,2.28c.33-.55.49-1.17.47-1.81-.03-.54-.19-1.06-.47-1.52-.22-.45-.57-.82-1-1.08-.44-.25-.93-.38-1.43-.37-.54-.01-1.08.12-1.55.39-.44.25-.81.61-1.05,1.06-.25.51-.38,1.07-.37,1.63,0,.5.12.99.34,1.43.22.44.56.81.99,1.06.43.26.93.41,1.43.43l1.23,1.43h1.73l-1.76-1.58c.59-.18,1.1-.57,1.43-1.09Zm-1.43-.36c-.26.33-.67.51-1.09.5-.43.01-.83-.18-1.09-.52-.3-.41-.45-.92-.42-1.43-.03-.51.11-1.02.42-1.43.27-.34.68-.53,1.12-.53.43-.02.83.18,1.08.53.28.42.42.93.39,1.43.05.52-.09,1.03-.4,1.45Z" style="fill:url(#uuid-2ef30a5e-3402-4017-bf7a-2ece29823108);"/><path d="m69.31,66.89c-.07,0-.13-.03-.18-.07s-.07-.11-.07-.18c0-1.59-1.29-2.88-2.88-2.88-.14,0-.25-.11-.25-.25,0-.07.03-.13.07-.18s.11-.07.18-.07c1.59,0,2.88-1.29,2.88-2.88,0-.07.03-.13.07-.18s.11-.07.18-.07c.07,0,.13.03.18.07s.07.11.07.18c0,1.59,1.29,2.88,2.88,2.88.07,0,.13.03.18.07s.07.11.07.18c0,.07-.03.13-.07.18s-.11.07-.18.07c-1.59,0-2.88,1.29-2.88,2.88,0,.14-.11.25-.25.25Zm18.14,17.47c-.11,0-.2-.09-.2-.2,0-1.27-1.03-2.3-2.3-2.3-.11,0-.2-.09-.2-.2,0-.05.02-.11.06-.14s.09-.06.14-.06c1.27,0,2.3-1.03,2.3-2.3,0-.05.02-.11.06-.14s.09-.06.14-.06.11.02.14.06.06.09.06.14c0,1.27,1.03,2.3,2.3,2.3.11,0,.2.09.2.2s-.09.2-.2.2c-1.27,0-2.3,1.03-2.3,2.3,0,.11-.09.2-.2.2Z" style="fill:#50e6ff;"/><path d="m86.53,70.2c.83,3.46-.51,7.08-3.39,9.17s-6.74,2.24-9.77.37c-3.03-1.86-4.64-5.37-4.08-8.88s3.18-6.34,6.64-7.17c4.73-1.13,9.47,1.79,10.6,6.51Z" style="fill:url(#uuid-796b033c-2dac-4011-857f-03c7939a77bb);"/><g style="clip-path:url(#uuid-430a7737-4e93-4b9b-86f4-68ad59e1a6fa);"><path d="m73.26,78.2c.85.02,1.65-.42,2.08-1.15s.43-1.65,0-2.38-1.23-1.18-2.08-1.16c0-.07.01-.13.01-.2-.01-1.3-1.08-2.35-2.38-2.35h-1.76c-.35,2.63.49,5.29,2.29,7.24h1.84Zm13.38-7.6s0-.04-.01-.06c-.28-1.53-.98-2.96-2.02-4.13-.13-.05-.27-.1-.41-.13-.76-.22-1.58-.07-2.23.39s-1.04,1.2-1.07,1.99c-.1-.01-.19-.02-.29-.02-1.21,0-2.25.87-2.45,2.07s.48,2.36,1.62,2.77c.25.1.51.15.78.14h2.91c1.17-.88,2.23-1.9,3.17-3.02Z" style="fill:#f2f2f2;"/></g><path d="m89.72,64.9c-.9-1.5-3.01-2.09-5.96-1.65-1.01.14-2.01.36-2.98.65.78.27,1.51.64,2.19,1.1.35-.08.69-.17,1.02-.22.52-.08,1.05-.12,1.58-.13,1.05-.15,2.11.24,2.81,1.04.55.91.09,2.48-1.27,4.3-1.88,2.35-4.19,4.32-6.81,5.81-2.56,1.59-5.39,2.69-8.35,3.24-2.24.34-3.84,0-4.39-.91s-.09-2.48,1.27-4.29c.17-.23.21-.34.4-.56-.09-.78-.08-1.56.04-2.34-.61.61-1.17,1.27-1.68,1.97-1.78,2.38-2.26,4.51-1.36,6.01.97,1.29,2.55,1.98,4.16,1.79.6,0,1.2-.05,1.79-.14,3.16-.58,6.19-1.74,8.91-3.44,2.79-1.6,5.25-3.7,7.25-6.21,1.78-2.38,2.26-4.52,1.36-6.02Z" style="fill:#50e6ff;"/><polygon points="92.85 31.16 88.66 29.08 92.85 27 92.85 31.16" style="fill:#ccc;"/><polygon points="61.76 27 65.95 29.08 61.76 31.16 61.76 27" style="fill:#ccc;"/><polygon points="75.33 45.48 77.41 41.29 79.49 45.48 75.33 45.48" style="fill:#ccc;"/></svg>