<?xml version="1.0" encoding="UTF-8"?><svg id="uuid-43814fe8-a153-435e-a76f-ac386bbbe146" xmlns="http://www.w3.org/2000/svg" width="150" height="100" viewBox="0 0 150 100"><rect x="0" width="150" height="100" rx="5" ry="5" style="fill:#f5f6f7;"/><rect x="103.91" y="23.71" width="20.35" height="8.45" rx="1.24" ry="1.24" style="fill:#07b9ff;"/><rect x="15.6" y="66.25" width="39.27" height="20.09" rx="1.24" ry="1.24" style="fill:#8bc53f;"/><rect x="15.6" y="44.52" width="39.27" height="20.09" rx="1.24" ry="1.24" style="fill:#8bc53f;"/><rect x="15.6" y="22.79" width="39.27" height="20.09" rx="1.24" ry="1.24" style="fill:#8bc53f;"/><rect x="15.6" y="12.67" width="118.8" height="8.45" rx="1.24" ry="1.24" style="fill:#1d75bc;"/><rect x="104.02" y="33.71" width="20.35" height="8.45" rx="1.24" ry="1.24" style="fill:#07b9ff;"/><rect x="103.91" y="67.17" width="20.35" height="8.45" rx="1.24" ry="1.24" style="fill:#07b9ff;"/><rect x="104.02" y="77.18" width="20.35" height="8.45" rx="1.24" ry="1.24" style="fill:#07b9ff;"/><rect x="64.82" y="50.39" width="20.35" height="8.45" rx="1.24" ry="1.24" style="fill:#f63;"/><line x1="56.01" y1="21.91" x2="56.01" y2="87.32" style="fill:none; stroke:#ccc; stroke-miterlimit:10; stroke-width:.17px;"/><line x1="95.11" y1="21.91" x2="95.11" y2="87.32" style="fill:none; stroke:#989898; stroke-miterlimit:10; stroke-width:.23px;"/><line x1="134.2" y1="21.91" x2="134.2" y2="87.32" style="fill:none; stroke:#989898; stroke-miterlimit:10; stroke-width:.23px;"/><line x1="55.92" y1="43.64" x2="134.17" y2="43.64" style="fill:none; stroke:#989898; stroke-miterlimit:10; stroke-width:.23px;"/><line x1="55.92" y1="87.33" x2="134.17" y2="87.33" style="fill:none; stroke:#989898; stroke-miterlimit:10; stroke-width:.23px;"/><line x1="55.92" y1="65.48" x2="134.17" y2="65.48" style="fill:none; stroke:#989898; stroke-miterlimit:10; stroke-width:.23px;"/><rect x="103.91" y="50.36" width="20.35" height="8.45" rx="1.24" ry="1.24" style="fill:#07b9ff;"/><line x1="85.12" y1="54.86" x2="101.3" y2="54.86" style="fill:none; stroke:#999; stroke-miterlimit:10;"/><polygon points="100.86 56.35 103.45 54.86 100.86 53.36 100.86 56.35" style="fill:#999;"/><path d="m113.63,50.59c0-1.95,1.09-4.83,10.52-4.83,8.64,0,9.51-6.96,2.33-8.12" style="fill:none; stroke:#999; stroke-miterlimit:10;"/><polygon points="127.04 36.24 124.32 37.48 126.75 39.22 127.04 36.24" style="fill:#999;"/><path d="m124.2,71.63s6.84-.17,6.78-4.48c-.06-4.31-6.55-4.54-6.55-4.54-5.03-.09-9.37.4-10.73-1.63" style="fill:none; stroke:#999; stroke-miterlimit:10;"/><polygon points="115.4 60.97 113.28 58.87 112.52 61.76 115.4 60.97" style="fill:#999;"/></svg>